<?xml version="1.0" encoding="utf-8" standalone="no"?>
<!DOCTYPE svg PUBLIC "-//W3C//DTD SVG 1.1//EN"
  "http://www.w3.org/Graphics/SVG/1.1/DTD/svg11.dtd">
<!-- Created with matplotlib (https://matplotlib.org/) -->
<svg height="504pt" version="1.1" viewBox="0 0 237.6 504" width="237.6pt" xmlns="http://www.w3.org/2000/svg" xmlns:xlink="http://www.w3.org/1999/xlink">
 <metadata>
  <rdf:RDF xmlns:cc="http://creativecommons.org/ns#" xmlns:dc="http://purl.org/dc/elements/1.1/" xmlns:rdf="http://www.w3.org/1999/02/22-rdf-syntax-ns#">
   <cc:Work>
    <dc:type rdf:resource="http://purl.org/dc/dcmitype/StillImage"/>
    <dc:date>2020-11-19T11:08:27.253161</dc:date>
    <dc:format>image/svg+xml</dc:format>
    <dc:creator>
     <cc:Agent>
      <dc:title>Matplotlib v3.3.1, https://matplotlib.org/</dc:title>
     </cc:Agent>
    </dc:creator>
   </cc:Work>
  </rdf:RDF>
 </metadata>
 <defs>
  <style type="text/css">*{stroke-linecap:butt;stroke-linejoin:round;}</style>
 </defs>
 <g id="figure_1">
  <g id="patch_1">
   <path d="M 0 504 
L 237.6 504 
L 237.6 0 
L 0 0 
z
" style="fill:#ffffff;"/>
  </g>
  <g id="axes_1">
   <g id="patch_2">
    <path clip-path="url(#pfbd0d70a85)" d="M 43.5105 69.0795 
C 43.815716 69.0795 44.108471 69.195666 44.324292 69.402415 
C 44.540112 69.609163 44.661375 69.889614 44.661375 70.182 
C 44.661375 70.474386 44.540112 70.754837 44.324292 70.961585 
C 44.108471 71.168334 43.815716 71.2845 43.5105 71.2845 
C 43.205284 71.2845 42.912529 71.168334 42.696708 70.961585 
C 42.480888 70.754837 42.359625 70.474386 42.359625 70.182 
C 42.359625 69.889614 42.480888 69.609163 42.696708 69.402415 
C 42.912529 69.195666 43.205284 69.0795 43.5105 69.0795 
z
" style="fill:#99ff99;stroke:#ffffff;stroke-linejoin:miter;"/>
   </g>
   <g id="patch_3">
    <path clip-path="url(#pfbd0d70a85)" d="M 153.9945 103.4775 
C 154.299716 103.4775 154.592471 103.593666 154.808292 103.800415 
C 155.024112 104.007163 155.145375 104.287614 155.145375 104.58 
C 155.145375 104.872386 155.024112 105.152837 154.808292 105.359585 
C 154.592471 105.566334 154.299716 105.6825 153.9945 105.6825 
C 153.689284 105.6825 153.396529 105.566334 153.180708 105.359585 
C 152.964888 105.152837 152.843625 104.872386 152.843625 104.58 
C 152.843625 104.287614 152.964888 104.007163 153.180708 103.800415 
C 153.396529 103.593666 153.689284 103.4775 153.9945 103.4775 
z
" style="fill:#ff3300;stroke:#ffffff;stroke-linejoin:miter;"/>
   </g>
   <g id="line2d_1">
    <path clip-path="url(#pfbd0d70a85)" d="M 32.00175 62.685 
L 165.50325 62.685 
" style="fill:none;stroke:#1f77b4;stroke-linecap:square;stroke-width:1.5;"/>
   </g>
   <g id="line2d_2">
    <path clip-path="url(#pfbd0d70a85)" d="M 165.50325 62.685 
L 165.50325 120.015 
" style="fill:none;stroke:#1f77b4;stroke-linecap:square;stroke-width:1.5;"/>
   </g>
   <g id="line2d_3">
    <path clip-path="url(#pfbd0d70a85)" d="M 165.50325 120.015 
L 32.00175 120.015 
" style="fill:none;stroke:#1f77b4;stroke-linecap:square;stroke-width:1.5;"/>
   </g>
   <g id="line2d_4">
    <path clip-path="url(#pfbd0d70a85)" d="M 32.00175 120.015 
L 32.00175 62.685 
" style="fill:none;stroke:#1f77b4;stroke-linecap:square;stroke-width:1.5;"/>
   </g>
   <g id="line2d_5">
    <path clip-path="url(#pfbd0d70a85)" d="M 140.64435 120.015 
L 56.4003 89.145 
" style="fill:none;stroke:#1f77b4;stroke-linecap:square;stroke-width:1.5;"/>
   </g>
   <g id="line2d_6">
    <path clip-path="url(#pfbd0d70a85)" d="M 82.1799 62.685 
L 63.30555 79.002 
" style="fill:none;stroke:#1f77b4;stroke-linecap:square;stroke-width:1.5;"/>
   </g>
   <g id="line2d_7">
    <path clip-path="url(#pfbd0d70a85)" d="M 89.5455 100.611 
L 78.95745 80.766 
" style="fill:none;stroke:#1f77b4;stroke-linecap:square;stroke-width:1.5;"/>
   </g>
   <g id="line2d_8">
    <path clip-path="url(#pfbd0d70a85)" d="M 119.9286 62.685 
L 93.68865 82.971 
" style="fill:none;stroke:#1f77b4;stroke-linecap:square;stroke-width:1.5;"/>
   </g>
   <g id="line2d_9">
    <path clip-path="url(#pfbd0d70a85)" d="M 130.51665 115.605 
L 113.4837 88.263 
" style="fill:none;stroke:#1f77b4;stroke-linecap:square;stroke-width:1.5;"/>
   </g>
   <g id="line2d_10">
    <path clip-path="url(#pfbd0d70a85)" d="M 152.61345 62.685 
L 128.2149 88.263 
" style="fill:none;stroke:#1f77b4;stroke-linecap:square;stroke-width:1.5;"/>
   </g>
   <g id="line2d_11">
    <path clip-path="url(#pfbd0d70a85)" d="M 154.45485 120.015 
L 138.80295 99.288 
" style="fill:none;stroke:#1f77b4;stroke-linecap:square;stroke-width:1.5;"/>
   </g>
   <g id="text_1">
    <!-- fitness &gt;= 0.8, species: 0 -->
    <g transform="translate(44.5125 54.48)scale(0.12 -0.12)">
     <defs>
      <path d="M 37.109375 75.984375 
L 37.109375 68.5 
L 28.515625 68.5 
Q 23.6875 68.5 21.796875 66.546875 
Q 19.921875 64.59375 19.921875 59.515625 
L 19.921875 54.6875 
L 34.71875 54.6875 
L 34.71875 47.703125 
L 19.921875 47.703125 
L 19.921875 0 
L 10.890625 0 
L 10.890625 47.703125 
L 2.296875 47.703125 
L 2.296875 54.6875 
L 10.890625 54.6875 
L 10.890625 58.5 
Q 10.890625 67.625 15.140625 71.796875 
Q 19.390625 75.984375 28.609375 75.984375 
z
" id="DejaVuSans-102"/>
      <path d="M 9.421875 54.6875 
L 18.40625 54.6875 
L 18.40625 0 
L 9.421875 0 
z
M 9.421875 75.984375 
L 18.40625 75.984375 
L 18.40625 64.59375 
L 9.421875 64.59375 
z
" id="DejaVuSans-105"/>
      <path d="M 18.3125 70.21875 
L 18.3125 54.6875 
L 36.8125 54.6875 
L 36.8125 47.703125 
L 18.3125 47.703125 
L 18.3125 18.015625 
Q 18.3125 11.328125 20.140625 9.421875 
Q 21.96875 7.515625 27.59375 7.515625 
L 36.8125 7.515625 
L 36.8125 0 
L 27.59375 0 
Q 17.1875 0 13.234375 3.875 
Q 9.28125 7.765625 9.28125 18.015625 
L 9.28125 47.703125 
L 2.6875 47.703125 
L 2.6875 54.6875 
L 9.28125 54.6875 
L 9.28125 70.21875 
z
" id="DejaVuSans-116"/>
      <path d="M 54.890625 33.015625 
L 54.890625 0 
L 45.90625 0 
L 45.90625 32.71875 
Q 45.90625 40.484375 42.875 44.328125 
Q 39.84375 48.1875 33.796875 48.1875 
Q 26.515625 48.1875 22.3125 43.546875 
Q 18.109375 38.921875 18.109375 30.90625 
L 18.109375 0 
L 9.078125 0 
L 9.078125 54.6875 
L 18.109375 54.6875 
L 18.109375 46.1875 
Q 21.34375 51.125 25.703125 53.5625 
Q 30.078125 56 35.796875 56 
Q 45.21875 56 50.046875 50.171875 
Q 54.890625 44.34375 54.890625 33.015625 
z
" id="DejaVuSans-110"/>
      <path d="M 56.203125 29.59375 
L 56.203125 25.203125 
L 14.890625 25.203125 
Q 15.484375 15.921875 20.484375 11.0625 
Q 25.484375 6.203125 34.421875 6.203125 
Q 39.59375 6.203125 44.453125 7.46875 
Q 49.3125 8.734375 54.109375 11.28125 
L 54.109375 2.78125 
Q 49.265625 0.734375 44.1875 -0.34375 
Q 39.109375 -1.421875 33.890625 -1.421875 
Q 20.796875 -1.421875 13.15625 6.1875 
Q 5.515625 13.8125 5.515625 26.8125 
Q 5.515625 40.234375 12.765625 48.109375 
Q 20.015625 56 32.328125 56 
Q 43.359375 56 49.78125 48.890625 
Q 56.203125 41.796875 56.203125 29.59375 
z
M 47.21875 32.234375 
Q 47.125 39.59375 43.09375 43.984375 
Q 39.0625 48.390625 32.421875 48.390625 
Q 24.90625 48.390625 20.390625 44.140625 
Q 15.875 39.890625 15.1875 32.171875 
z
" id="DejaVuSans-101"/>
      <path d="M 44.28125 53.078125 
L 44.28125 44.578125 
Q 40.484375 46.53125 36.375 47.5 
Q 32.28125 48.484375 27.875 48.484375 
Q 21.1875 48.484375 17.84375 46.4375 
Q 14.5 44.390625 14.5 40.28125 
Q 14.5 37.15625 16.890625 35.375 
Q 19.28125 33.59375 26.515625 31.984375 
L 29.59375 31.296875 
Q 39.15625 29.25 43.1875 25.515625 
Q 47.21875 21.78125 47.21875 15.09375 
Q 47.21875 7.46875 41.1875 3.015625 
Q 35.15625 -1.421875 24.609375 -1.421875 
Q 20.21875 -1.421875 15.453125 -0.5625 
Q 10.6875 0.296875 5.421875 2 
L 5.421875 11.28125 
Q 10.40625 8.6875 15.234375 7.390625 
Q 20.0625 6.109375 24.8125 6.109375 
Q 31.15625 6.109375 34.5625 8.28125 
Q 37.984375 10.453125 37.984375 14.40625 
Q 37.984375 18.0625 35.515625 20.015625 
Q 33.0625 21.96875 24.703125 23.78125 
L 21.578125 24.515625 
Q 13.234375 26.265625 9.515625 29.90625 
Q 5.8125 33.546875 5.8125 39.890625 
Q 5.8125 47.609375 11.28125 51.796875 
Q 16.75 56 26.8125 56 
Q 31.78125 56 36.171875 55.265625 
Q 40.578125 54.546875 44.28125 53.078125 
z
" id="DejaVuSans-115"/>
      <path id="DejaVuSans-32"/>
      <path d="M 10.59375 49.21875 
L 10.59375 58.109375 
L 73.1875 35.40625 
L 73.1875 27.296875 
L 10.59375 4.59375 
L 10.59375 13.484375 
L 60.890625 31.296875 
z
" id="DejaVuSans-62"/>
      <path d="M 10.59375 45.40625 
L 73.1875 45.40625 
L 73.1875 37.203125 
L 10.59375 37.203125 
z
M 10.59375 25.484375 
L 73.1875 25.484375 
L 73.1875 17.1875 
L 10.59375 17.1875 
z
" id="DejaVuSans-61"/>
      <path d="M 31.78125 66.40625 
Q 24.171875 66.40625 20.328125 58.90625 
Q 16.5 51.421875 16.5 36.375 
Q 16.5 21.390625 20.328125 13.890625 
Q 24.171875 6.390625 31.78125 6.390625 
Q 39.453125 6.390625 43.28125 13.890625 
Q 47.125 21.390625 47.125 36.375 
Q 47.125 51.421875 43.28125 58.90625 
Q 39.453125 66.40625 31.78125 66.40625 
z
M 31.78125 74.21875 
Q 44.046875 74.21875 50.515625 64.515625 
Q 56.984375 54.828125 56.984375 36.375 
Q 56.984375 17.96875 50.515625 8.265625 
Q 44.046875 -1.421875 31.78125 -1.421875 
Q 19.53125 -1.421875 13.0625 8.265625 
Q 6.59375 17.96875 6.59375 36.375 
Q 6.59375 54.828125 13.0625 64.515625 
Q 19.53125 74.21875 31.78125 74.21875 
z
" id="DejaVuSans-48"/>
      <path d="M 10.6875 12.40625 
L 21 12.40625 
L 21 0 
L 10.6875 0 
z
" id="DejaVuSans-46"/>
      <path d="M 31.78125 34.625 
Q 24.75 34.625 20.71875 30.859375 
Q 16.703125 27.09375 16.703125 20.515625 
Q 16.703125 13.921875 20.71875 10.15625 
Q 24.75 6.390625 31.78125 6.390625 
Q 38.8125 6.390625 42.859375 10.171875 
Q 46.921875 13.96875 46.921875 20.515625 
Q 46.921875 27.09375 42.890625 30.859375 
Q 38.875 34.625 31.78125 34.625 
z
M 21.921875 38.8125 
Q 15.578125 40.375 12.03125 44.71875 
Q 8.5 49.078125 8.5 55.328125 
Q 8.5 64.0625 14.71875 69.140625 
Q 20.953125 74.21875 31.78125 74.21875 
Q 42.671875 74.21875 48.875 69.140625 
Q 55.078125 64.0625 55.078125 55.328125 
Q 55.078125 49.078125 51.53125 44.71875 
Q 48 40.375 41.703125 38.8125 
Q 48.828125 37.15625 52.796875 32.3125 
Q 56.78125 27.484375 56.78125 20.515625 
Q 56.78125 9.90625 50.3125 4.234375 
Q 43.84375 -1.421875 31.78125 -1.421875 
Q 19.734375 -1.421875 13.25 4.234375 
Q 6.78125 9.90625 6.78125 20.515625 
Q 6.78125 27.484375 10.78125 32.3125 
Q 14.796875 37.15625 21.921875 38.8125 
z
M 18.3125 54.390625 
Q 18.3125 48.734375 21.84375 45.5625 
Q 25.390625 42.390625 31.78125 42.390625 
Q 38.140625 42.390625 41.71875 45.5625 
Q 45.3125 48.734375 45.3125 54.390625 
Q 45.3125 60.0625 41.71875 63.234375 
Q 38.140625 66.40625 31.78125 66.40625 
Q 25.390625 66.40625 21.84375 63.234375 
Q 18.3125 60.0625 18.3125 54.390625 
z
" id="DejaVuSans-56"/>
      <path d="M 11.71875 12.40625 
L 22.015625 12.40625 
L 22.015625 4 
L 14.015625 -11.625 
L 7.71875 -11.625 
L 11.71875 4 
z
" id="DejaVuSans-44"/>
      <path d="M 18.109375 8.203125 
L 18.109375 -20.796875 
L 9.078125 -20.796875 
L 9.078125 54.6875 
L 18.109375 54.6875 
L 18.109375 46.390625 
Q 20.953125 51.265625 25.265625 53.625 
Q 29.59375 56 35.59375 56 
Q 45.5625 56 51.78125 48.09375 
Q 58.015625 40.1875 58.015625 27.296875 
Q 58.015625 14.40625 51.78125 6.484375 
Q 45.5625 -1.421875 35.59375 -1.421875 
Q 29.59375 -1.421875 25.265625 0.953125 
Q 20.953125 3.328125 18.109375 8.203125 
z
M 48.6875 27.296875 
Q 48.6875 37.203125 44.609375 42.84375 
Q 40.53125 48.484375 33.40625 48.484375 
Q 26.265625 48.484375 22.1875 42.84375 
Q 18.109375 37.203125 18.109375 27.296875 
Q 18.109375 17.390625 22.1875 11.75 
Q 26.265625 6.109375 33.40625 6.109375 
Q 40.53125 6.109375 44.609375 11.75 
Q 48.6875 17.390625 48.6875 27.296875 
z
" id="DejaVuSans-112"/>
      <path d="M 48.78125 52.59375 
L 48.78125 44.1875 
Q 44.96875 46.296875 41.140625 47.34375 
Q 37.3125 48.390625 33.40625 48.390625 
Q 24.65625 48.390625 19.8125 42.84375 
Q 14.984375 37.3125 14.984375 27.296875 
Q 14.984375 17.28125 19.8125 11.734375 
Q 24.65625 6.203125 33.40625 6.203125 
Q 37.3125 6.203125 41.140625 7.25 
Q 44.96875 8.296875 48.78125 10.40625 
L 48.78125 2.09375 
Q 45.015625 0.34375 40.984375 -0.53125 
Q 36.96875 -1.421875 32.421875 -1.421875 
Q 20.0625 -1.421875 12.78125 6.34375 
Q 5.515625 14.109375 5.515625 27.296875 
Q 5.515625 40.671875 12.859375 48.328125 
Q 20.21875 56 33.015625 56 
Q 37.15625 56 41.109375 55.140625 
Q 45.0625 54.296875 48.78125 52.59375 
z
" id="DejaVuSans-99"/>
      <path d="M 11.71875 12.40625 
L 22.015625 12.40625 
L 22.015625 0 
L 11.71875 0 
z
M 11.71875 51.703125 
L 22.015625 51.703125 
L 22.015625 39.3125 
L 11.71875 39.3125 
z
" id="DejaVuSans-58"/>
     </defs>
     <use xlink:href="#DejaVuSans-102"/>
     <use x="35.205078" xlink:href="#DejaVuSans-105"/>
     <use x="62.988281" xlink:href="#DejaVuSans-116"/>
     <use x="102.197266" xlink:href="#DejaVuSans-110"/>
     <use x="165.576172" xlink:href="#DejaVuSans-101"/>
     <use x="227.099609" xlink:href="#DejaVuSans-115"/>
     <use x="279.199219" xlink:href="#DejaVuSans-115"/>
     <use x="331.298828" xlink:href="#DejaVuSans-32"/>
     <use x="363.085938" xlink:href="#DejaVuSans-62"/>
     <use x="446.875" xlink:href="#DejaVuSans-61"/>
     <use x="530.664062" xlink:href="#DejaVuSans-32"/>
     <use x="562.451172" xlink:href="#DejaVuSans-48"/>
     <use x="626.074219" xlink:href="#DejaVuSans-46"/>
     <use x="657.861328" xlink:href="#DejaVuSans-56"/>
     <use x="721.484375" xlink:href="#DejaVuSans-44"/>
     <use x="753.271484" xlink:href="#DejaVuSans-32"/>
     <use x="785.058594" xlink:href="#DejaVuSans-115"/>
     <use x="837.158203" xlink:href="#DejaVuSans-112"/>
     <use x="900.634766" xlink:href="#DejaVuSans-101"/>
     <use x="962.158203" xlink:href="#DejaVuSans-99"/>
     <use x="1017.138672" xlink:href="#DejaVuSans-105"/>
     <use x="1044.921875" xlink:href="#DejaVuSans-101"/>
     <use x="1106.445312" xlink:href="#DejaVuSans-115"/>
     <use x="1158.544922" xlink:href="#DejaVuSans-58"/>
     <use x="1192.236328" xlink:href="#DejaVuSans-32"/>
     <use x="1224.023438" xlink:href="#DejaVuSans-48"/>
    </g>
   </g>
  </g>
  <g id="axes_2">
   <g id="patch_4">
    <path clip-path="url(#pa1255548f5)" d="M 36.167109 292.785494 
C 36.411281 292.785494 36.645486 292.878427 36.818142 293.043826 
C 36.990798 293.209224 37.087809 293.433585 37.087809 293.667494 
C 37.087809 293.901403 36.990798 294.125763 36.818142 294.291162 
C 36.645486 294.456561 36.411281 294.549494 36.167109 294.549494 
C 35.922936 294.549494 35.688732 294.456561 35.516075 294.291162 
C 35.343419 294.125763 35.246409 293.901403 35.246409 293.667494 
C 35.246409 293.433585 35.343419 293.209224 35.516075 293.043826 
C 35.688732 292.878427 35.922936 292.785494 36.167109 292.785494 
z
" style="fill:#b3c22e;"/>
   </g>
   <g id="patch_5">
    <path clip-path="url(#pa1255548f5)" d="M 35.960651 319.756618 
C 36.204824 319.756618 36.439029 319.849551 36.611685 320.01495 
C 36.784341 320.180348 36.881351 320.404709 36.881351 320.638618 
C 36.881351 320.872527 36.784341 321.096887 36.611685 321.262286 
C 36.439029 321.427685 36.204824 321.520618 35.960651 321.520618 
C 35.716479 321.520618 35.482274 321.427685 35.309618 321.262286 
C 35.136962 321.096887 35.039951 320.872527 35.039951 320.638618 
C 35.039951 320.404709 35.136962 320.180348 35.309618 320.01495 
C 35.482274 319.849551 35.716479 319.756618 35.960651 319.756618 
z
" style="fill:#b3c22e;"/>
   </g>
   <g id="patch_6">
    <path clip-path="url(#pa1255548f5)" d="M 71.519915 277.471445 
C 71.764088 277.471445 71.998293 277.564378 72.170949 277.729777 
C 72.343605 277.895176 72.440615 278.119536 72.440615 278.353445 
C 72.440615 278.587354 72.343605 278.811714 72.170949 278.977113 
C 71.998293 279.142512 71.764088 279.235445 71.519915 279.235445 
C 71.275743 279.235445 71.041538 279.142512 70.868882 278.977113 
C 70.696226 278.811714 70.599215 278.587354 70.599215 278.353445 
C 70.599215 278.119536 70.696226 277.895176 70.868882 277.729777 
C 71.041538 277.564378 71.275743 277.471445 71.519915 277.471445 
z
" style="fill:#b3c22e;"/>
   </g>
   <g id="patch_7">
    <path clip-path="url(#pa1255548f5)" d="M 59.769951 288.747046 
C 60.014124 288.747046 60.248329 288.839979 60.420985 289.005377 
C 60.593641 289.170776 60.690651 289.395136 60.690651 289.629046 
C 60.690651 289.862955 60.593641 290.087315 60.420985 290.252714 
C 60.248329 290.418113 60.014124 290.511046 59.769951 290.511046 
C 59.525779 290.511046 59.291574 290.418113 59.118918 290.252714 
C 58.946262 290.087315 58.849251 289.862955 58.849251 289.629046 
C 58.849251 289.395136 58.946262 289.170776 59.118918 289.005377 
C 59.291574 288.839979 59.525779 288.747046 59.769951 288.747046 
z
" style="fill:#b3c22e;"/>
   </g>
   <g id="patch_8">
    <path clip-path="url(#pa1255548f5)" d="M 35.996418 280.306971 
C 36.24059 280.306971 36.474795 280.399904 36.647451 280.565303 
C 36.820107 280.730702 36.917118 280.955062 36.917118 281.188971 
C 36.917118 281.422881 36.820107 281.647241 36.647451 281.81264 
C 36.474795 281.978038 36.24059 282.070971 35.996418 282.070971 
C 35.752245 282.070971 35.518041 281.978038 35.345385 281.81264 
C 35.172729 281.647241 35.075718 281.422881 35.075718 281.188971 
C 35.075718 280.955062 35.172729 280.730702 35.345385 280.565303 
C 35.518041 280.399904 35.752245 280.306971 35.996418 280.306971 
z
" style="fill:#b3c22e;"/>
   </g>
   <g id="patch_9">
    <path clip-path="url(#pa1255548f5)" d="M 111.226371 327.067685 
C 111.470544 327.067685 111.704748 327.160618 111.877404 327.326017 
C 112.05006 327.491416 112.147071 327.715776 112.147071 327.949685 
C 112.147071 328.183594 112.05006 328.407955 111.877404 328.573353 
C 111.704748 328.738752 111.470544 328.831685 111.226371 328.831685 
C 110.982199 328.831685 110.747994 328.738752 110.575338 328.573353 
C 110.402682 328.407955 110.305671 328.183594 110.305671 327.949685 
C 110.305671 327.715776 110.402682 327.491416 110.575338 327.326017 
C 110.747994 327.160618 110.982199 327.067685 111.226371 327.067685 
z
" style="fill:#b3c22e;"/>
   </g>
   <g id="patch_10">
    <path clip-path="url(#pa1255548f5)" d="M 39.825382 277.042148 
C 40.069554 277.042148 40.303759 277.135081 40.476415 277.30048 
C 40.649071 277.465878 40.746082 277.690239 40.746082 277.924148 
C 40.746082 278.158057 40.649071 278.382417 40.476415 278.547816 
C 40.303759 278.713215 40.069554 278.806148 39.825382 278.806148 
C 39.581209 278.806148 39.347005 278.713215 39.174349 278.547816 
C 39.001693 278.382417 38.904682 278.158057 38.904682 277.924148 
C 38.904682 277.690239 39.001693 277.465878 39.174349 277.30048 
C 39.347005 277.135081 39.581209 277.042148 39.825382 277.042148 
z
" style="fill:#b3c22e;"/>
   </g>
   <g id="patch_11">
    <path clip-path="url(#pa1255548f5)" d="M 70.614503 277.0119 
C 70.858676 277.0119 71.09288 277.104833 71.265536 277.270232 
C 71.438193 277.43563 71.535203 277.659991 71.535203 277.8939 
C 71.535203 278.127809 71.438193 278.352169 71.265536 278.517568 
C 71.09288 278.682967 70.858676 278.7759 70.614503 278.7759 
C 70.370331 278.7759 70.136126 278.682967 69.96347 278.517568 
C 69.790814 278.352169 69.693803 278.127809 69.693803 277.8939 
C 69.693803 277.659991 69.790814 277.43563 69.96347 277.270232 
C 70.136126 277.104833 70.370331 277.0119 70.614503 277.0119 
z
" style="fill:#b3c22e;"/>
   </g>
   <g id="patch_12">
    <path clip-path="url(#pa1255548f5)" d="M 60.858206 285.77497 
C 61.102378 285.77497 61.336583 285.867903 61.509239 286.033302 
C 61.681895 286.1987 61.778906 286.423061 61.778906 286.65697 
C 61.778906 286.890879 61.681895 287.115239 61.509239 287.280638 
C 61.336583 287.446037 61.102378 287.53897 60.858206 287.53897 
C 60.614033 287.53897 60.379829 287.446037 60.207173 287.280638 
C 60.034517 287.115239 59.937506 286.890879 59.937506 286.65697 
C 59.937506 286.423061 60.034517 286.1987 60.207173 286.033302 
C 60.379829 285.867903 60.614033 285.77497 60.858206 285.77497 
z
" style="fill:#b3c22e;"/>
   </g>
   <g id="patch_13">
    <path clip-path="url(#pa1255548f5)" d="M 77.290337 296.286617 
C 77.53451 296.286617 77.768715 296.37955 77.941371 296.544949 
C 78.114027 296.710348 78.211037 296.934708 78.211037 297.168617 
C 78.211037 297.402526 78.114027 297.626887 77.941371 297.792285 
C 77.768715 297.957684 77.53451 298.050617 77.290337 298.050617 
C 77.046165 298.050617 76.81196 297.957684 76.639304 297.792285 
C 76.466648 297.626887 76.369637 297.402526 76.369637 297.168617 
C 76.369637 296.934708 76.466648 296.710348 76.639304 296.544949 
C 76.81196 296.37955 77.046165 296.286617 77.290337 296.286617 
z
" style="fill:#b3c22e;"/>
   </g>
   <g id="patch_14">
    <path clip-path="url(#pa1255548f5)" d="M 111.226371 327.067685 
C 111.470544 327.067685 111.704748 327.160618 111.877404 327.326017 
C 112.05006 327.491416 112.147071 327.715776 112.147071 327.949685 
C 112.147071 328.183594 112.05006 328.407955 111.877404 328.573353 
C 111.704748 328.738752 111.470544 328.831685 111.226371 328.831685 
C 110.982199 328.831685 110.747994 328.738752 110.575338 328.573353 
C 110.402682 328.407955 110.305671 328.183594 110.305671 327.949685 
C 110.305671 327.715776 110.402682 327.491416 110.575338 327.326017 
C 110.747994 327.160618 110.982199 327.067685 111.226371 327.067685 
z
" style="fill:#b3c22e;"/>
   </g>
   <g id="patch_15">
    <path clip-path="url(#pa1255548f5)" d="M 90.148634 320.401543 
C 90.392806 320.401543 90.627011 320.494476 90.799667 320.659874 
C 90.972323 320.825273 91.069334 321.049633 91.069334 321.283543 
C 91.069334 321.517452 90.972323 321.741812 90.799667 321.907211 
C 90.627011 322.072609 90.392806 322.165543 90.148634 322.165543 
C 89.904461 322.165543 89.670256 322.072609 89.4976 321.907211 
C 89.324944 321.741812 89.227934 321.517452 89.227934 321.283543 
C 89.227934 321.049633 89.324944 320.825273 89.4976 320.659874 
C 89.670256 320.494476 89.904461 320.401543 90.148634 320.401543 
z
" style="fill:#b3c22e;"/>
   </g>
   <g id="patch_16">
    <path clip-path="url(#pa1255548f5)" d="M 75.890859 302.559818 
C 76.135031 302.559818 76.369236 302.652751 76.541892 302.81815 
C 76.714548 302.983549 76.811559 303.207909 76.811559 303.441818 
C 76.811559 303.675727 76.714548 303.900087 76.541892 304.065486 
C 76.369236 304.230885 76.135031 304.323818 75.890859 304.323818 
C 75.646686 304.323818 75.412481 304.230885 75.239825 304.065486 
C 75.067169 303.900087 74.970159 303.675727 74.970159 303.441818 
C 74.970159 303.207909 75.067169 302.983549 75.239825 302.81815 
C 75.412481 302.652751 75.646686 302.559818 75.890859 302.559818 
z
" style="fill:#b3c22e;"/>
   </g>
   <g id="patch_17">
    <path clip-path="url(#pa1255548f5)" d="M 35.994717 280.094322 
C 36.23889 280.094322 36.473095 280.187255 36.645751 280.352654 
C 36.818407 280.518053 36.915417 280.742413 36.915417 280.976322 
C 36.915417 281.210232 36.818407 281.434592 36.645751 281.599991 
C 36.473095 281.765389 36.23889 281.858322 35.994717 281.858322 
C 35.750545 281.858322 35.51634 281.765389 35.343684 281.599991 
C 35.171028 281.434592 35.074017 281.210232 35.074017 280.976322 
C 35.074017 280.742413 35.171028 280.518053 35.343684 280.352654 
C 35.51634 280.187255 35.750545 280.094322 35.994717 280.094322 
z
" style="fill:#b3c22e;"/>
   </g>
   <g id="patch_18">
    <path clip-path="url(#pa1255548f5)" d="M 118.947857 327.142874 
C 119.19203 327.142874 119.426235 327.235807 119.598891 327.401205 
C 119.771547 327.566604 119.868557 327.790964 119.868557 328.024874 
C 119.868557 328.258783 119.771547 328.483143 119.598891 328.648542 
C 119.426235 328.81394 119.19203 328.906874 118.947857 328.906874 
C 118.703685 328.906874 118.46948 328.81394 118.296824 328.648542 
C 118.124168 328.483143 118.027157 328.258783 118.027157 328.024874 
C 118.027157 327.790964 118.124168 327.566604 118.296824 327.401205 
C 118.46948 327.235807 118.703685 327.142874 118.947857 327.142874 
z
" style="fill:#b3c22e;"/>
   </g>
   <g id="patch_19">
    <path clip-path="url(#pa1255548f5)" d="M 35.993725 281.866037 
C 36.237898 281.866037 36.472102 281.95897 36.644758 282.124368 
C 36.817414 282.289767 36.914425 282.514127 36.914425 282.748037 
C 36.914425 282.981946 36.817414 283.206306 36.644758 283.371705 
C 36.472102 283.537104 36.237898 283.630037 35.993725 283.630037 
C 35.749553 283.630037 35.515348 283.537104 35.342692 283.371705 
C 35.170036 283.206306 35.073025 282.981946 35.073025 282.748037 
C 35.073025 282.514127 35.170036 282.289767 35.342692 282.124368 
C 35.515348 281.95897 35.749553 281.866037 35.993725 281.866037 
z
" style="fill:#b3c22e;"/>
   </g>
   <g id="patch_20">
    <path clip-path="url(#pa1255548f5)" d="M 78.926308 299.336168 
C 79.17048 299.336168 79.404685 299.429101 79.577341 299.5945 
C 79.749997 299.759899 79.847008 299.984259 79.847008 300.218168 
C 79.847008 300.452077 79.749997 300.676438 79.577341 300.841837 
C 79.404685 301.007235 79.17048 301.100168 78.926308 301.100168 
C 78.682135 301.100168 78.447931 301.007235 78.275275 300.841837 
C 78.102619 300.676438 78.005608 300.452077 78.005608 300.218168 
C 78.005608 299.984259 78.102619 299.759899 78.275275 299.5945 
C 78.447931 299.429101 78.682135 299.336168 78.926308 299.336168 
z
" style="fill:#b3c22e;"/>
   </g>
   <g id="patch_21">
    <path clip-path="url(#pa1255548f5)" d="M 35.944249 281.50931 
C 36.188421 281.50931 36.422626 281.602243 36.595282 281.767642 
C 36.767938 281.93304 36.864949 282.157401 36.864949 282.39131 
C 36.864949 282.625219 36.767938 282.849579 36.595282 283.014978 
C 36.422626 283.180377 36.188421 283.27331 35.944249 283.27331 
C 35.700076 283.27331 35.465872 283.180377 35.293216 283.014978 
C 35.12056 282.849579 35.023549 282.625219 35.023549 282.39131 
C 35.023549 282.157401 35.12056 281.93304 35.293216 281.767642 
C 35.465872 281.602243 35.700076 281.50931 35.944249 281.50931 
z
" style="fill:#b3c22e;"/>
   </g>
   <g id="patch_22">
    <path clip-path="url(#pa1255548f5)" d="M 35.993697 280.094083 
C 36.23787 280.094083 36.472074 280.187016 36.64473 280.352415 
C 36.817386 280.517814 36.914397 280.742174 36.914397 280.976083 
C 36.914397 281.209992 36.817386 281.434353 36.64473 281.599751 
C 36.472074 281.76515 36.23787 281.858083 35.993697 281.858083 
C 35.749525 281.858083 35.51532 281.76515 35.342664 281.599751 
C 35.170008 281.434353 35.072997 281.209992 35.072997 280.976083 
C 35.072997 280.742174 35.170008 280.517814 35.342664 280.352415 
C 35.51532 280.187016 35.749525 280.094083 35.993697 280.094083 
z
" style="fill:#b3c22e;"/>
   </g>
   <g id="patch_23">
    <path clip-path="url(#pa1255548f5)" d="M 61.283769 286.089376 
C 61.527941 286.089376 61.762146 286.182309 61.934802 286.347708 
C 62.107458 286.513107 62.204469 286.737467 62.204469 286.971376 
C 62.204469 287.205285 62.107458 287.429645 61.934802 287.595044 
C 61.762146 287.760443 61.527941 287.853376 61.283769 287.853376 
C 61.039596 287.853376 60.805391 287.760443 60.632735 287.595044 
C 60.460079 287.429645 60.363069 287.205285 60.363069 286.971376 
C 60.363069 286.737467 60.460079 286.513107 60.632735 286.347708 
C 60.805391 286.182309 61.039596 286.089376 61.283769 286.089376 
z
" style="fill:#b3c22e;"/>
   </g>
   <g id="patch_24">
    <path clip-path="url(#pa1255548f5)" d="M 118.947857 327.142874 
C 119.19203 327.142874 119.426235 327.235807 119.598891 327.401205 
C 119.771547 327.566604 119.868557 327.790964 119.868557 328.024874 
C 119.868557 328.258783 119.771547 328.483143 119.598891 328.648542 
C 119.426235 328.81394 119.19203 328.906874 118.947857 328.906874 
C 118.703685 328.906874 118.46948 328.81394 118.296824 328.648542 
C 118.124168 328.483143 118.027157 328.258783 118.027157 328.024874 
C 118.027157 327.790964 118.124168 327.566604 118.296824 327.401205 
C 118.46948 327.235807 118.703685 327.142874 118.947857 327.142874 
z
" style="fill:#b3c22e;"/>
   </g>
   <g id="patch_25">
    <path clip-path="url(#pa1255548f5)" d="M 120.001669 327.185323 
C 120.245842 327.185323 120.480047 327.278256 120.652703 327.443655 
C 120.825359 327.609053 120.922369 327.833414 120.922369 328.067323 
C 120.922369 328.301232 120.825359 328.525592 120.652703 328.690991 
C 120.480047 328.85639 120.245842 328.949323 120.001669 328.949323 
C 119.757497 328.949323 119.523292 328.85639 119.350636 328.690991 
C 119.17798 328.525592 119.080969 328.301232 119.080969 328.067323 
C 119.080969 327.833414 119.17798 327.609053 119.350636 327.443655 
C 119.523292 327.278256 119.757497 327.185323 120.001669 327.185323 
z
" style="fill:#b3c22e;"/>
   </g>
   <g id="patch_26">
    <path clip-path="url(#pa1255548f5)" d="M 37.464811 323.937591 
C 37.708983 323.937591 37.943188 324.030524 38.115844 324.195923 
C 38.2885 324.361322 38.385511 324.585682 38.385511 324.819591 
C 38.385511 325.0535 38.2885 325.277861 38.115844 325.443259 
C 37.943188 325.608658 37.708983 325.701591 37.464811 325.701591 
C 37.220638 325.701591 36.986434 325.608658 36.813778 325.443259 
C 36.641122 325.277861 36.544111 325.0535 36.544111 324.819591 
C 36.544111 324.585682 36.641122 324.361322 36.813778 324.195923 
C 36.986434 324.030524 37.220638 323.937591 37.464811 323.937591 
z
" style="fill:#b3c22e;"/>
   </g>
   <g id="patch_27">
    <path clip-path="url(#pa1255548f5)" d="M 54.357937 277.061964 
C 54.60211 277.061964 54.836314 277.154897 55.00897 277.320296 
C 55.181626 277.485695 55.278637 277.710055 55.278637 277.943964 
C 55.278637 278.177873 55.181626 278.402234 55.00897 278.567632 
C 54.836314 278.733031 54.60211 278.825964 54.357937 278.825964 
C 54.113765 278.825964 53.87956 278.733031 53.706904 278.567632 
C 53.534248 278.402234 53.437237 278.177873 53.437237 277.943964 
C 53.437237 277.710055 53.534248 277.485695 53.706904 277.320296 
C 53.87956 277.154897 54.113765 277.061964 54.357937 277.061964 
z
" style="fill:#b3c22e;"/>
   </g>
   <g id="patch_28">
    <path clip-path="url(#pa1255548f5)" d="M 107.535184 327.259443 
C 107.779357 327.259443 108.013561 327.352376 108.186217 327.517775 
C 108.358873 327.683173 108.455884 327.907534 108.455884 328.141443 
C 108.455884 328.375352 108.358873 328.599712 108.186217 328.765111 
C 108.013561 328.93051 107.779357 329.023443 107.535184 329.023443 
C 107.291012 329.023443 107.056807 328.93051 106.884151 328.765111 
C 106.711495 328.599712 106.614484 328.375352 106.614484 328.141443 
C 106.614484 327.907534 106.711495 327.683173 106.884151 327.517775 
C 107.056807 327.352376 107.291012 327.259443 107.535184 327.259443 
z
" style="fill:#b3c22e;"/>
   </g>
   <g id="patch_29">
    <path clip-path="url(#pa1255548f5)" d="M 60.359492 297.580075 
C 60.603664 297.580075 60.837869 297.673008 61.010525 297.838407 
C 61.183181 298.003805 61.280192 298.228166 61.280192 298.462075 
C 61.280192 298.695984 61.183181 298.920344 61.010525 299.085743 
C 60.837869 299.251142 60.603664 299.344075 60.359492 299.344075 
C 60.115319 299.344075 59.881115 299.251142 59.708459 299.085743 
C 59.535803 298.920344 59.438792 298.695984 59.438792 298.462075 
C 59.438792 298.228166 59.535803 298.003805 59.708459 297.838407 
C 59.881115 297.673008 60.115319 297.580075 60.359492 297.580075 
z
" style="fill:#b3c22e;"/>
   </g>
   <g id="patch_30">
    <path clip-path="url(#pa1255548f5)" d="M 53.324904 297.267813 
C 53.569076 297.267813 53.803281 297.360746 53.975937 297.526145 
C 54.148593 297.691544 54.245604 297.915904 54.245604 298.149813 
C 54.245604 298.383722 54.148593 298.608083 53.975937 298.773482 
C 53.803281 298.93888 53.569076 299.031813 53.324904 299.031813 
C 53.080731 299.031813 52.846527 298.93888 52.673871 298.773482 
C 52.501215 298.608083 52.404204 298.383722 52.404204 298.149813 
C 52.404204 297.915904 52.501215 297.691544 52.673871 297.526145 
C 52.846527 297.360746 53.080731 297.267813 53.324904 297.267813 
z
" style="fill:#b3c22e;"/>
   </g>
   <g id="patch_31">
    <path clip-path="url(#pa1255548f5)" d="M 35.993669 280.094265 
C 36.237841 280.094265 36.472046 280.187198 36.644702 280.352597 
C 36.817358 280.517995 36.914369 280.742356 36.914369 280.976265 
C 36.914369 281.210174 36.817358 281.434534 36.644702 281.599933 
C 36.472046 281.765332 36.237841 281.858265 35.993669 281.858265 
C 35.749496 281.858265 35.515291 281.765332 35.342635 281.599933 
C 35.169979 281.434534 35.072969 281.210174 35.072969 280.976265 
C 35.072969 280.742356 35.169979 280.517995 35.342635 280.352597 
C 35.515291 280.187198 35.749496 280.094265 35.993669 280.094265 
z
" style="fill:#b3c22e;"/>
   </g>
   <g id="patch_32">
    <path clip-path="url(#pa1255548f5)" d="M 37.012581 277.047076 
C 37.256753 277.047076 37.490958 277.140009 37.663614 277.305407 
C 37.83627 277.470806 37.933281 277.695166 37.933281 277.929076 
C 37.933281 278.162985 37.83627 278.387345 37.663614 278.552744 
C 37.490958 278.718142 37.256753 278.811076 37.012581 278.811076 
C 36.768408 278.811076 36.534204 278.718142 36.361548 278.552744 
C 36.188891 278.387345 36.091881 278.162985 36.091881 277.929076 
C 36.091881 277.695166 36.188891 277.470806 36.361548 277.305407 
C 36.534204 277.140009 36.768408 277.047076 37.012581 277.047076 
z
" style="fill:#b3c22e;"/>
   </g>
   <g id="patch_33">
    <path clip-path="url(#pa1255548f5)" d="M 111.181543 327.015241 
C 111.425715 327.015241 111.65992 327.108174 111.832576 327.273573 
C 112.005232 327.438972 112.102243 327.663332 112.102243 327.897241 
C 112.102243 328.13115 112.005232 328.355511 111.832576 328.520909 
C 111.65992 328.686308 111.425715 328.779241 111.181543 328.779241 
C 110.93737 328.779241 110.703166 328.686308 110.530509 328.520909 
C 110.357853 328.355511 110.260843 328.13115 110.260843 327.897241 
C 110.260843 327.663332 110.357853 327.438972 110.530509 327.273573 
C 110.703166 327.108174 110.93737 327.015241 111.181543 327.015241 
z
" style="fill:#b3c22e;"/>
   </g>
   <g id="patch_34">
    <path clip-path="url(#pa1255548f5)" d="M 120.001669 327.185323 
C 120.245842 327.185323 120.480047 327.278256 120.652703 327.443655 
C 120.825359 327.609053 120.922369 327.833414 120.922369 328.067323 
C 120.922369 328.301232 120.825359 328.525592 120.652703 328.690991 
C 120.480047 328.85639 120.245842 328.949323 120.001669 328.949323 
C 119.757497 328.949323 119.523292 328.85639 119.350636 328.690991 
C 119.17798 328.525592 119.080969 328.301232 119.080969 328.067323 
C 119.080969 327.833414 119.17798 327.609053 119.350636 327.443655 
C 119.523292 327.278256 119.757497 327.185323 120.001669 327.185323 
z
" style="fill:#b3c22e;"/>
   </g>
   <g id="patch_35">
    <path clip-path="url(#pa1255548f5)" d="M 62.046689 326.863482 
C 62.290862 326.863482 62.525066 326.956415 62.697722 327.121814 
C 62.870378 327.287212 62.967389 327.511573 62.967389 327.745482 
C 62.967389 327.979391 62.870378 328.203751 62.697722 328.36915 
C 62.525066 328.534549 62.290862 328.627482 62.046689 328.627482 
C 61.802517 328.627482 61.568312 328.534549 61.395656 328.36915 
C 61.223 328.203751 61.125989 327.979391 61.125989 327.745482 
C 61.125989 327.511573 61.223 327.287212 61.395656 327.121814 
C 61.568312 326.956415 61.802517 326.863482 62.046689 326.863482 
z
" style="fill:#b3c22e;"/>
   </g>
   <g id="patch_36">
    <path clip-path="url(#pa1255548f5)" d="M 93.736179 326.302748 
C 93.980351 326.302748 94.214556 326.395681 94.387212 326.56108 
C 94.559868 326.726479 94.656879 326.950839 94.656879 327.184748 
C 94.656879 327.418658 94.559868 327.643018 94.387212 327.808417 
C 94.214556 327.973815 93.980351 328.066748 93.736179 328.066748 
C 93.492006 328.066748 93.257801 327.973815 93.085145 327.808417 
C 92.912489 327.643018 92.815479 327.418658 92.815479 327.184748 
C 92.815479 326.950839 92.912489 326.726479 93.085145 326.56108 
C 93.257801 326.395681 93.492006 326.302748 93.736179 326.302748 
z
" style="fill:#b3c22e;"/>
   </g>
   <g id="patch_37">
    <path clip-path="url(#pa1255548f5)" d="M 120.60131 327.248953 
C 120.845482 327.248953 121.079687 327.341887 121.252343 327.507285 
C 121.424999 327.672684 121.52201 327.897044 121.52201 328.130953 
C 121.52201 328.364863 121.424999 328.589223 121.252343 328.754622 
C 121.079687 328.92002 120.845482 329.012953 120.60131 329.012953 
C 120.357137 329.012953 120.122932 328.92002 119.950276 328.754622 
C 119.77762 328.589223 119.68061 328.364863 119.68061 328.130953 
C 119.68061 327.897044 119.77762 327.672684 119.950276 327.507285 
C 120.122932 327.341887 120.357137 327.248953 120.60131 327.248953 
z
" style="fill:#b3c22e;"/>
   </g>
   <g id="patch_38">
    <path clip-path="url(#pa1255548f5)" d="M 64.484138 278.213572 
C 64.72831 278.213572 64.962515 278.306505 65.135171 278.471904 
C 65.307827 278.637303 65.404838 278.861663 65.404838 279.095572 
C 65.404838 279.329481 65.307827 279.553842 65.135171 279.719241 
C 64.962515 279.884639 64.72831 279.977572 64.484138 279.977572 
C 64.239965 279.977572 64.005761 279.884639 63.833105 279.719241 
C 63.660449 279.553842 63.563438 279.329481 63.563438 279.095572 
C 63.563438 278.861663 63.660449 278.637303 63.833105 278.471904 
C 64.005761 278.306505 64.239965 278.213572 64.484138 278.213572 
z
" style="fill:#b3c22e;"/>
   </g>
   <g id="patch_39">
    <path clip-path="url(#pa1255548f5)" d="M 57.389466 277.569572 
C 57.633639 277.569572 57.867843 277.662506 58.040499 277.827904 
C 58.213155 277.993303 58.310166 278.217663 58.310166 278.451572 
C 58.310166 278.685482 58.213155 278.909842 58.040499 279.075241 
C 57.867843 279.240639 57.633639 279.333572 57.389466 279.333572 
C 57.145294 279.333572 56.911089 279.240639 56.738433 279.075241 
C 56.565777 278.909842 56.468766 278.685482 56.468766 278.451572 
C 56.468766 278.217663 56.565777 277.993303 56.738433 277.827904 
C 56.911089 277.662506 57.145294 277.569572 57.389466 277.569572 
z
" style="fill:#b3c22e;"/>
   </g>
   <g id="patch_40">
    <path clip-path="url(#pa1255548f5)" d="M 35.986359 281.822292 
C 36.230531 281.822292 36.464736 281.915226 36.637392 282.080624 
C 36.810048 282.246023 36.907059 282.470383 36.907059 282.704292 
C 36.907059 282.938202 36.810048 283.162562 36.637392 283.327961 
C 36.464736 283.493359 36.230531 283.586292 35.986359 283.586292 
C 35.742186 283.586292 35.507982 283.493359 35.335326 283.327961 
C 35.16267 283.162562 35.065659 282.938202 35.065659 282.704292 
C 35.065659 282.470383 35.16267 282.246023 35.335326 282.080624 
C 35.507982 281.915226 35.742186 281.822292 35.986359 281.822292 
z
" style="fill:#b3c22e;"/>
   </g>
   <g id="patch_41">
    <path clip-path="url(#pa1255548f5)" d="M 71.468919 277.180188 
C 71.713092 277.180188 71.947296 277.273121 72.119952 277.43852 
C 72.292609 277.603918 72.389619 277.828279 72.389619 278.062188 
C 72.389619 278.296097 72.292609 278.520457 72.119952 278.685856 
C 71.947296 278.851255 71.713092 278.944188 71.468919 278.944188 
C 71.224747 278.944188 70.990542 278.851255 70.817886 278.685856 
C 70.64523 278.520457 70.548219 278.296097 70.548219 278.062188 
C 70.548219 277.828279 70.64523 277.603918 70.817886 277.43852 
C 70.990542 277.273121 71.224747 277.180188 71.468919 277.180188 
z
" style="fill:#b3c22e;"/>
   </g>
   <g id="patch_42">
    <path clip-path="url(#pa1255548f5)" d="M 120.60131 327.248953 
C 120.845482 327.248953 121.079687 327.341887 121.252343 327.507285 
C 121.424999 327.672684 121.52201 327.897044 121.52201 328.130953 
C 121.52201 328.364863 121.424999 328.589223 121.252343 328.754622 
C 121.079687 328.92002 120.845482 329.012953 120.60131 329.012953 
C 120.357137 329.012953 120.122932 328.92002 119.950276 328.754622 
C 119.77762 328.589223 119.68061 328.364863 119.68061 328.130953 
C 119.68061 327.897044 119.77762 327.672684 119.950276 327.507285 
C 120.122932 327.341887 120.357137 327.248953 120.60131 327.248953 
z
" style="fill:#b3c22e;"/>
   </g>
   <g id="patch_43">
    <path clip-path="url(#pa1255548f5)" d="M 37.440513 288.537777 
C 37.684685 288.537777 37.91889 288.63071 38.091546 288.796108 
C 38.264202 288.961507 38.361213 289.185868 38.361213 289.419777 
C 38.361213 289.653686 38.264202 289.878046 38.091546 290.043445 
C 37.91889 290.208844 37.684685 290.301777 37.440513 290.301777 
C 37.19634 290.301777 36.962136 290.208844 36.78948 290.043445 
C 36.616824 289.878046 36.519813 289.653686 36.519813 289.419777 
C 36.519813 289.185868 36.616824 288.961507 36.78948 288.796108 
C 36.962136 288.63071 37.19634 288.537777 37.440513 288.537777 
z
" style="fill:#b3c22e;"/>
   </g>
   <g id="patch_44">
    <path clip-path="url(#pa1255548f5)" d="M 120.60131 327.248953 
C 120.845482 327.248953 121.079687 327.341887 121.252343 327.507285 
C 121.424999 327.672684 121.52201 327.897044 121.52201 328.130953 
C 121.52201 328.364863 121.424999 328.589223 121.252343 328.754622 
C 121.079687 328.92002 120.845482 329.012953 120.60131 329.012953 
C 120.357137 329.012953 120.122932 328.92002 119.950276 328.754622 
C 119.77762 328.589223 119.68061 328.364863 119.68061 328.130953 
C 119.68061 327.897044 119.77762 327.672684 119.950276 327.507285 
C 120.122932 327.341887 120.357137 327.248953 120.60131 327.248953 
z
" style="fill:#b3c22e;"/>
   </g>
   <g id="patch_45">
    <path clip-path="url(#pa1255548f5)" d="M 59.548883 277.966765 
C 59.793056 277.966765 60.02726 278.059698 60.199917 278.225097 
C 60.372573 278.390496 60.469583 278.614856 60.469583 278.848765 
C 60.469583 279.082674 60.372573 279.307034 60.199917 279.472433 
C 60.02726 279.637832 59.793056 279.730765 59.548883 279.730765 
C 59.304711 279.730765 59.070506 279.637832 58.89785 279.472433 
C 58.725194 279.307034 58.628183 279.082674 58.628183 278.848765 
C 58.628183 278.614856 58.725194 278.390496 58.89785 278.225097 
C 59.070506 278.059698 59.304711 277.966765 59.548883 277.966765 
z
" style="fill:#b3c22e;"/>
   </g>
   <g id="patch_46">
    <path clip-path="url(#pa1255548f5)" d="M 65.151321 280.26836 
C 65.395494 280.26836 65.629699 280.361293 65.802355 280.526691 
C 65.975011 280.69209 66.072021 280.91645 66.072021 281.15036 
C 66.072021 281.384269 65.975011 281.608629 65.802355 281.774028 
C 65.629699 281.939426 65.395494 282.03236 65.151321 282.03236 
C 64.907149 282.03236 64.672944 281.939426 64.500288 281.774028 
C 64.327632 281.608629 64.230621 281.384269 64.230621 281.15036 
C 64.230621 280.91645 64.327632 280.69209 64.500288 280.526691 
C 64.672944 280.361293 64.907149 280.26836 65.151321 280.26836 
z
" style="fill:#b3c22e;"/>
   </g>
   <g id="patch_47">
    <path clip-path="url(#pa1255548f5)" d="M 37.376717 326.465482 
C 37.620889 326.465482 37.855094 326.558415 38.02775 326.723813 
C 38.200406 326.889212 38.297417 327.113572 38.297417 327.347482 
C 38.297417 327.581391 38.200406 327.805751 38.02775 327.97115 
C 37.855094 328.136548 37.620889 328.229482 37.376717 328.229482 
C 37.132544 328.229482 36.89834 328.136548 36.725684 327.97115 
C 36.553028 327.805751 36.456017 327.581391 36.456017 327.347482 
C 36.456017 327.113572 36.553028 326.889212 36.725684 326.723813 
C 36.89834 326.558415 37.132544 326.465482 37.376717 326.465482 
z
" style="fill:#b3c22e;"/>
   </g>
   <g id="patch_48">
    <path clip-path="url(#pa1255548f5)" d="M 120.60131 327.248953 
C 120.845482 327.248953 121.079687 327.341887 121.252343 327.507285 
C 121.424999 327.672684 121.52201 327.897044 121.52201 328.130953 
C 121.52201 328.364863 121.424999 328.589223 121.252343 328.754622 
C 121.079687 328.92002 120.845482 329.012953 120.60131 329.012953 
C 120.357137 329.012953 120.122932 328.92002 119.950276 328.754622 
C 119.77762 328.589223 119.68061 328.364863 119.68061 328.130953 
C 119.68061 327.897044 119.77762 327.672684 119.950276 327.507285 
C 120.122932 327.341887 120.357137 327.248953 120.60131 327.248953 
z
" style="fill:#b3c22e;"/>
   </g>
   <g id="patch_49">
    <path clip-path="url(#pa1255548f5)" d="M 60.801328 286.635205 
C 61.045501 286.635205 61.279706 286.728138 61.452362 286.893537 
C 61.625018 287.058935 61.722028 287.283296 61.722028 287.517205 
C 61.722028 287.751114 61.625018 287.975474 61.452362 288.140873 
C 61.279706 288.306272 61.045501 288.399205 60.801328 288.399205 
C 60.557156 288.399205 60.322951 288.306272 60.150295 288.140873 
C 59.977639 287.975474 59.880628 287.751114 59.880628 287.517205 
C 59.880628 287.283296 59.977639 287.058935 60.150295 286.893537 
C 60.322951 286.728138 60.557156 286.635205 60.801328 286.635205 
z
" style="fill:#b3c22e;"/>
   </g>
   <g id="patch_50">
    <path clip-path="url(#pa1255548f5)" d="M 35.929546 326.24819 
C 36.173719 326.24819 36.407923 326.341124 36.580579 326.506522 
C 36.753235 326.671921 36.850246 326.896281 36.850246 327.13019 
C 36.850246 327.3641 36.753235 327.58846 36.580579 327.753859 
C 36.407923 327.919257 36.173719 328.01219 35.929546 328.01219 
C 35.685374 328.01219 35.451169 327.919257 35.278513 327.753859 
C 35.105857 327.58846 35.008846 327.3641 35.008846 327.13019 
C 35.008846 326.896281 35.105857 326.671921 35.278513 326.506522 
C 35.451169 326.341124 35.685374 326.24819 35.929546 326.24819 
z
" style="fill:#b3c22e;"/>
   </g>
   <g id="patch_51">
    <path clip-path="url(#pa1255548f5)" d="M 120.60131 327.248953 
C 120.845482 327.248953 121.079687 327.341887 121.252343 327.507285 
C 121.424999 327.672684 121.52201 327.897044 121.52201 328.130953 
C 121.52201 328.364863 121.424999 328.589223 121.252343 328.754622 
C 121.079687 328.92002 120.845482 329.012953 120.60131 329.012953 
C 120.357137 329.012953 120.122932 328.92002 119.950276 328.754622 
C 119.77762 328.589223 119.68061 328.364863 119.68061 328.130953 
C 119.68061 327.897044 119.77762 327.672684 119.950276 327.507285 
C 120.122932 327.341887 120.357137 327.248953 120.60131 327.248953 
z
" style="fill:#b3c22e;"/>
   </g>
   <g id="patch_52">
    <path clip-path="url(#pa1255548f5)" d="M 59.009712 288.286125 
C 59.253885 288.286125 59.488089 288.379058 59.660745 288.544457 
C 59.833401 288.709856 59.930412 288.934216 59.930412 289.168125 
C 59.930412 289.402034 59.833401 289.626394 59.660745 289.791793 
C 59.488089 289.957192 59.253885 290.050125 59.009712 290.050125 
C 58.76554 290.050125 58.531335 289.957192 58.358679 289.791793 
C 58.186023 289.626394 58.089012 289.402034 58.089012 289.168125 
C 58.089012 288.934216 58.186023 288.709856 58.358679 288.544457 
C 58.531335 288.379058 58.76554 288.286125 59.009712 288.286125 
z
" style="fill:#b3c22e;"/>
   </g>
   <g id="patch_53">
    <path clip-path="url(#pa1255548f5)" d="M 57.389588 277.569955 
C 57.633761 277.569955 57.867966 277.662888 58.040622 277.828286 
C 58.213278 277.993685 58.310288 278.218046 58.310288 278.451955 
C 58.310288 278.685864 58.213278 278.910224 58.040622 279.075623 
C 57.867966 279.241022 57.633761 279.333955 57.389588 279.333955 
C 57.145416 279.333955 56.911211 279.241022 56.738555 279.075623 
C 56.565899 278.910224 56.468888 278.685864 56.468888 278.451955 
C 56.468888 278.218046 56.565899 277.993685 56.738555 277.828286 
C 56.911211 277.662888 57.145416 277.569955 57.389588 277.569955 
z
" style="fill:#b3c22e;"/>
   </g>
   <g id="patch_54">
    <path clip-path="url(#pa1255548f5)" d="M 54.389761 296.943112 
C 54.633933 296.943112 54.868138 297.036045 55.040794 297.201444 
C 55.21345 297.366842 55.310461 297.591203 55.310461 297.825112 
C 55.310461 298.059021 55.21345 298.283381 55.040794 298.44878 
C 54.868138 298.614179 54.633933 298.707112 54.389761 298.707112 
C 54.145588 298.707112 53.911383 298.614179 53.738727 298.44878 
C 53.566071 298.283381 53.469061 298.059021 53.469061 297.825112 
C 53.469061 297.591203 53.566071 297.366842 53.738727 297.201444 
C 53.911383 297.036045 54.145588 296.943112 54.389761 296.943112 
z
" style="fill:#b3c22e;"/>
   </g>
   <g id="patch_55">
    <path clip-path="url(#pa1255548f5)" d="M 120.60131 327.248953 
C 120.845482 327.248953 121.079687 327.341887 121.252343 327.507285 
C 121.424999 327.672684 121.52201 327.897044 121.52201 328.130953 
C 121.52201 328.364863 121.424999 328.589223 121.252343 328.754622 
C 121.079687 328.92002 120.845482 329.012953 120.60131 329.012953 
C 120.357137 329.012953 120.122932 328.92002 119.950276 328.754622 
C 119.77762 328.589223 119.68061 328.364863 119.68061 328.130953 
C 119.68061 327.897044 119.77762 327.672684 119.950276 327.507285 
C 120.122932 327.341887 120.357137 327.248953 120.60131 327.248953 
z
" style="fill:#b3c22e;"/>
   </g>
   <g id="patch_56">
    <path clip-path="url(#pa1255548f5)" d="M 37.45237 321.327339 
C 37.696543 321.327339 37.930747 321.420272 38.103403 321.585671 
C 38.27606 321.75107 38.37307 321.97543 38.37307 322.209339 
C 38.37307 322.443248 38.27606 322.667609 38.103403 322.833007 
C 37.930747 322.998406 37.696543 323.091339 37.45237 323.091339 
C 37.208198 323.091339 36.973993 322.998406 36.801337 322.833007 
C 36.628681 322.667609 36.53167 322.443248 36.53167 322.209339 
C 36.53167 321.97543 36.628681 321.75107 36.801337 321.585671 
C 36.973993 321.420272 37.208198 321.327339 37.45237 321.327339 
z
" style="fill:#b3c22e;"/>
   </g>
   <g id="patch_57">
    <path clip-path="url(#pa1255548f5)" d="M 35.993572 280.0948 
C 36.237745 280.0948 36.471949 280.187733 36.644605 280.353131 
C 36.817261 280.51853 36.914272 280.74289 36.914272 280.9768 
C 36.914272 281.210709 36.817261 281.435069 36.644605 281.600468 
C 36.471949 281.765867 36.237745 281.8588 35.993572 281.8588 
C 35.7494 281.8588 35.515195 281.765867 35.342539 281.600468 
C 35.169883 281.435069 35.072872 281.210709 35.072872 280.9768 
C 35.072872 280.74289 35.169883 280.51853 35.342539 280.353131 
C 35.515195 280.187733 35.7494 280.0948 35.993572 280.0948 
z
" style="fill:#b3c22e;"/>
   </g>
   <g id="patch_58">
    <path clip-path="url(#pa1255548f5)" d="M 120.60131 327.248953 
C 120.845482 327.248953 121.079687 327.341887 121.252343 327.507285 
C 121.424999 327.672684 121.52201 327.897044 121.52201 328.130953 
C 121.52201 328.364863 121.424999 328.589223 121.252343 328.754622 
C 121.079687 328.92002 120.845482 329.012953 120.60131 329.012953 
C 120.357137 329.012953 120.122932 328.92002 119.950276 328.754622 
C 119.77762 328.589223 119.68061 328.364863 119.68061 328.130953 
C 119.68061 327.897044 119.77762 327.672684 119.950276 327.507285 
C 120.122932 327.341887 120.357137 327.248953 120.60131 327.248953 
z
" style="fill:#b3c22e;"/>
   </g>
   <g id="patch_59">
    <path clip-path="url(#pa1255548f5)" d="M 69.940446 277.052705 
C 70.184619 277.052705 70.418823 277.145638 70.591479 277.311037 
C 70.764135 277.476436 70.861146 277.700796 70.861146 277.934705 
C 70.861146 278.168614 70.764135 278.392975 70.591479 278.558373 
C 70.418823 278.723772 70.184619 278.816705 69.940446 278.816705 
C 69.696274 278.816705 69.462069 278.723772 69.289413 278.558373 
C 69.116757 278.392975 69.019746 278.168614 69.019746 277.934705 
C 69.019746 277.700796 69.116757 277.476436 69.289413 277.311037 
C 69.462069 277.145638 69.696274 277.052705 69.940446 277.052705 
z
" style="fill:#b3c22e;"/>
   </g>
   <g id="patch_60">
    <path clip-path="url(#pa1255548f5)" d="M 120.60131 327.248953 
C 120.845482 327.248953 121.079687 327.341887 121.252343 327.507285 
C 121.424999 327.672684 121.52201 327.897044 121.52201 328.130953 
C 121.52201 328.364863 121.424999 328.589223 121.252343 328.754622 
C 121.079687 328.92002 120.845482 329.012953 120.60131 329.012953 
C 120.357137 329.012953 120.122932 328.92002 119.950276 328.754622 
C 119.77762 328.589223 119.68061 328.364863 119.68061 328.130953 
C 119.68061 327.897044 119.77762 327.672684 119.950276 327.507285 
C 120.122932 327.341887 120.357137 327.248953 120.60131 327.248953 
z
" style="fill:#b3c22e;"/>
   </g>
   <g id="patch_61">
    <path clip-path="url(#pa1255548f5)" d="M 120.006164 327.21195 
C 120.250336 327.21195 120.484541 327.304883 120.657197 327.470282 
C 120.829853 327.635681 120.926864 327.860041 120.926864 328.09395 
C 120.926864 328.32786 120.829853 328.55222 120.657197 328.717619 
C 120.484541 328.883017 120.250336 328.97595 120.006164 328.97595 
C 119.761991 328.97595 119.527786 328.883017 119.35513 328.717619 
C 119.182474 328.55222 119.085464 328.32786 119.085464 328.09395 
C 119.085464 327.860041 119.182474 327.635681 119.35513 327.470282 
C 119.527786 327.304883 119.761991 327.21195 120.006164 327.21195 
z
" style="fill:#5126c2;"/>
   </g>
   <g id="patch_62">
    <path clip-path="url(#pa1255548f5)" d="M 120.006164 327.21195 
C 120.250336 327.21195 120.484541 327.304883 120.657197 327.470282 
C 120.829853 327.635681 120.926864 327.860041 120.926864 328.09395 
C 120.926864 328.32786 120.829853 328.55222 120.657197 328.717619 
C 120.484541 328.883017 120.250336 328.97595 120.006164 328.97595 
C 119.761991 328.97595 119.527786 328.883017 119.35513 328.717619 
C 119.182474 328.55222 119.085464 328.32786 119.085464 328.09395 
C 119.085464 327.860041 119.182474 327.635681 119.35513 327.470282 
C 119.527786 327.304883 119.761991 327.21195 120.006164 327.21195 
z
" style="fill:#5126c2;"/>
   </g>
   <g id="patch_63">
    <path clip-path="url(#pa1255548f5)" d="M 36.573896 297.384539 
C 36.818069 297.384539 37.052273 297.477472 37.224929 297.642871 
C 37.397586 297.80827 37.494596 298.03263 37.494596 298.266539 
C 37.494596 298.500448 37.397586 298.724808 37.224929 298.890207 
C 37.052273 299.055606 36.818069 299.148539 36.573896 299.148539 
C 36.329724 299.148539 36.095519 299.055606 35.922863 298.890207 
C 35.750207 298.724808 35.653196 298.500448 35.653196 298.266539 
C 35.653196 298.03263 35.750207 297.80827 35.922863 297.642871 
C 36.095519 297.477472 36.329724 297.384539 36.573896 297.384539 
z
" style="fill:#5126c2;"/>
   </g>
   <g id="patch_64">
    <path clip-path="url(#pa1255548f5)" d="M 68.393791 308.587736 
C 68.637964 308.587736 68.872169 308.680669 69.044825 308.846068 
C 69.217481 309.011467 69.314491 309.235827 69.314491 309.469736 
C 69.314491 309.703645 69.217481 309.928005 69.044825 310.093404 
C 68.872169 310.258803 68.637964 310.351736 68.393791 310.351736 
C 68.149619 310.351736 67.915414 310.258803 67.742758 310.093404 
C 67.570102 309.928005 67.473091 309.703645 67.473091 309.469736 
C 67.473091 309.235827 67.570102 309.011467 67.742758 308.846068 
C 67.915414 308.680669 68.149619 308.587736 68.393791 308.587736 
z
" style="fill:#5126c2;"/>
   </g>
   <g id="patch_65">
    <path clip-path="url(#pa1255548f5)" d="M 59.406594 326.862925 
C 59.650767 326.862925 59.884971 326.955858 60.057627 327.121256 
C 60.230283 327.286655 60.327294 327.511016 60.327294 327.744925 
C 60.327294 327.978834 60.230283 328.203194 60.057627 328.368593 
C 59.884971 328.533992 59.650767 328.626925 59.406594 328.626925 
C 59.162422 328.626925 58.928217 328.533992 58.755561 328.368593 
C 58.582905 328.203194 58.485894 327.978834 58.485894 327.744925 
C 58.485894 327.511016 58.582905 327.286655 58.755561 327.121256 
C 58.928217 326.955858 59.162422 326.862925 59.406594 326.862925 
z
" style="fill:#5126c2;"/>
   </g>
   <g id="patch_66">
    <path clip-path="url(#pa1255548f5)" d="M 120.006164 327.21195 
C 120.250336 327.21195 120.484541 327.304883 120.657197 327.470282 
C 120.829853 327.635681 120.926864 327.860041 120.926864 328.09395 
C 120.926864 328.32786 120.829853 328.55222 120.657197 328.717619 
C 120.484541 328.883017 120.250336 328.97595 120.006164 328.97595 
C 119.761991 328.97595 119.527786 328.883017 119.35513 328.717619 
C 119.182474 328.55222 119.085464 328.32786 119.085464 328.09395 
C 119.085464 327.860041 119.182474 327.635681 119.35513 327.470282 
C 119.527786 327.304883 119.761991 327.21195 120.006164 327.21195 
z
" style="fill:#5126c2;"/>
   </g>
   <g id="patch_67">
    <path clip-path="url(#pa1255548f5)" d="M 60.959744 297.834198 
C 61.203916 297.834198 61.438121 297.927131 61.610777 298.092529 
C 61.783433 298.257928 61.880444 298.482288 61.880444 298.716198 
C 61.880444 298.950107 61.783433 299.174467 61.610777 299.339866 
C 61.438121 299.505265 61.203916 299.598198 60.959744 299.598198 
C 60.715571 299.598198 60.481366 299.505265 60.30871 299.339866 
C 60.136054 299.174467 60.039044 298.950107 60.039044 298.716198 
C 60.039044 298.482288 60.136054 298.257928 60.30871 298.092529 
C 60.481366 297.927131 60.715571 297.834198 60.959744 297.834198 
z
" style="fill:#5126c2;"/>
   </g>
   <g id="patch_68">
    <path clip-path="url(#pa1255548f5)" d="M 49.952009 289.468584 
C 50.196181 289.468584 50.430386 289.561517 50.603042 289.726916 
C 50.775698 289.892315 50.872709 290.116675 50.872709 290.350584 
C 50.872709 290.584494 50.775698 290.808854 50.603042 290.974253 
C 50.430386 291.139651 50.196181 291.232584 49.952009 291.232584 
C 49.707836 291.232584 49.473632 291.139651 49.300976 290.974253 
C 49.12832 290.808854 49.031309 290.584494 49.031309 290.350584 
C 49.031309 290.116675 49.12832 289.892315 49.300976 289.726916 
C 49.473632 289.561517 49.707836 289.468584 49.952009 289.468584 
z
" style="fill:#5126c2;"/>
   </g>
   <g id="patch_69">
    <path clip-path="url(#pa1255548f5)" d="M 120.006164 327.21195 
C 120.250336 327.21195 120.484541 327.304883 120.657197 327.470282 
C 120.829853 327.635681 120.926864 327.860041 120.926864 328.09395 
C 120.926864 328.32786 120.829853 328.55222 120.657197 328.717619 
C 120.484541 328.883017 120.250336 328.97595 120.006164 328.97595 
C 119.761991 328.97595 119.527786 328.883017 119.35513 328.717619 
C 119.182474 328.55222 119.085464 328.32786 119.085464 328.09395 
C 119.085464 327.860041 119.182474 327.635681 119.35513 327.470282 
C 119.527786 327.304883 119.761991 327.21195 120.006164 327.21195 
z
" style="fill:#5126c2;"/>
   </g>
   <g id="patch_70">
    <path clip-path="url(#pa1255548f5)" d="M 61.9446 279.80569 
C 62.188772 279.80569 62.422977 279.898623 62.595633 280.064022 
C 62.768289 280.229421 62.8653 280.453781 62.8653 280.68769 
C 62.8653 280.921599 62.768289 281.14596 62.595633 281.311358 
C 62.422977 281.476757 62.188772 281.56969 61.9446 281.56969 
C 61.700427 281.56969 61.466222 281.476757 61.293566 281.311358 
C 61.12091 281.14596 61.0239 280.921599 61.0239 280.68769 
C 61.0239 280.453781 61.12091 280.229421 61.293566 280.064022 
C 61.466222 279.898623 61.700427 279.80569 61.9446 279.80569 
z
" style="fill:#5126c2;"/>
   </g>
   <g id="patch_71">
    <path clip-path="url(#pa1255548f5)" d="M 55.284794 277.31065 
C 55.528966 277.31065 55.763171 277.403583 55.935827 277.568982 
C 56.108483 277.73438 56.205494 277.958741 56.205494 278.19265 
C 56.205494 278.426559 56.108483 278.650919 55.935827 278.816318 
C 55.763171 278.981717 55.528966 279.07465 55.284794 279.07465 
C 55.040621 279.07465 54.806417 278.981717 54.63376 278.816318 
C 54.461104 278.650919 54.364094 278.426559 54.364094 278.19265 
C 54.364094 277.958741 54.461104 277.73438 54.63376 277.568982 
C 54.806417 277.403583 55.040621 277.31065 55.284794 277.31065 
z
" style="fill:#5126c2;"/>
   </g>
   <g id="patch_72">
    <path clip-path="url(#pa1255548f5)" d="M 120.006164 327.21195 
C 120.250336 327.21195 120.484541 327.304883 120.657197 327.470282 
C 120.829853 327.635681 120.926864 327.860041 120.926864 328.09395 
C 120.926864 328.32786 120.829853 328.55222 120.657197 328.717619 
C 120.484541 328.883017 120.250336 328.97595 120.006164 328.97595 
C 119.761991 328.97595 119.527786 328.883017 119.35513 328.717619 
C 119.182474 328.55222 119.085464 328.32786 119.085464 328.09395 
C 119.085464 327.860041 119.182474 327.635681 119.35513 327.470282 
C 119.527786 327.304883 119.761991 327.21195 120.006164 327.21195 
z
" style="fill:#5126c2;"/>
   </g>
   <g id="patch_73">
    <path clip-path="url(#pa1255548f5)" d="M 119.987315 327.24422 
C 120.231488 327.24422 120.465692 327.337153 120.638348 327.502552 
C 120.811004 327.667951 120.908015 327.892311 120.908015 328.12622 
C 120.908015 328.360129 120.811004 328.58449 120.638348 328.749888 
C 120.465692 328.915287 120.231488 329.00822 119.987315 329.00822 
C 119.743143 329.00822 119.508938 328.915287 119.336282 328.749888 
C 119.163626 328.58449 119.066615 328.360129 119.066615 328.12622 
C 119.066615 327.892311 119.163626 327.667951 119.336282 327.502552 
C 119.508938 327.337153 119.743143 327.24422 119.987315 327.24422 
z
" style="fill:#5126c2;"/>
   </g>
   <g id="patch_74">
    <path clip-path="url(#pa1255548f5)" d="M 60.581093 286.121603 
C 60.825265 286.121603 61.05947 286.214536 61.232126 286.379935 
C 61.404782 286.545334 61.501793 286.769694 61.501793 287.003603 
C 61.501793 287.237512 61.404782 287.461873 61.232126 287.627271 
C 61.05947 287.79267 60.825265 287.885603 60.581093 287.885603 
C 60.33692 287.885603 60.102716 287.79267 59.93006 287.627271 
C 59.757404 287.461873 59.660393 287.237512 59.660393 287.003603 
C 59.660393 286.769694 59.757404 286.545334 59.93006 286.379935 
C 60.102716 286.214536 60.33692 286.121603 60.581093 286.121603 
z
" style="fill:#5126c2;"/>
   </g>
   <g id="patch_75">
    <path clip-path="url(#pa1255548f5)" d="M 120.006164 327.21195 
C 120.250336 327.21195 120.484541 327.304883 120.657197 327.470282 
C 120.829853 327.635681 120.926864 327.860041 120.926864 328.09395 
C 120.926864 328.32786 120.829853 328.55222 120.657197 328.717619 
C 120.484541 328.883017 120.250336 328.97595 120.006164 328.97595 
C 119.761991 328.97595 119.527786 328.883017 119.35513 328.717619 
C 119.182474 328.55222 119.085464 328.32786 119.085464 328.09395 
C 119.085464 327.860041 119.182474 327.635681 119.35513 327.470282 
C 119.527786 327.304883 119.761991 327.21195 120.006164 327.21195 
z
" style="fill:#5126c2;"/>
   </g>
   <g id="patch_76">
    <path clip-path="url(#pa1255548f5)" d="M 37.451765 321.284882 
C 37.695938 321.284882 37.930142 321.377815 38.102798 321.543214 
C 38.275454 321.708612 38.372465 321.932973 38.372465 322.166882 
C 38.372465 322.400791 38.275454 322.625151 38.102798 322.79055 
C 37.930142 322.955949 37.695938 323.048882 37.451765 323.048882 
C 37.207593 323.048882 36.973388 322.955949 36.800732 322.79055 
C 36.628076 322.625151 36.531065 322.400791 36.531065 322.166882 
C 36.531065 321.932973 36.628076 321.708612 36.800732 321.543214 
C 36.973388 321.377815 37.207593 321.284882 37.451765 321.284882 
z
" style="fill:#5126c2;"/>
   </g>
   <g id="patch_77">
    <path clip-path="url(#pa1255548f5)" d="M 93.455187 289.380246 
C 93.699359 289.380246 93.933564 289.473179 94.10622 289.638578 
C 94.278876 289.803977 94.375887 290.028337 94.375887 290.262246 
C 94.375887 290.496155 94.278876 290.720516 94.10622 290.885914 
C 93.933564 291.051313 93.699359 291.144246 93.455187 291.144246 
C 93.211014 291.144246 92.976809 291.051313 92.804153 290.885914 
C 92.631497 290.720516 92.534487 290.496155 92.534487 290.262246 
C 92.534487 290.028337 92.631497 289.803977 92.804153 289.638578 
C 92.976809 289.473179 93.211014 289.380246 93.455187 289.380246 
z
" style="fill:#5126c2;"/>
   </g>
   <g id="patch_78">
    <path clip-path="url(#pa1255548f5)" d="M 120.502627 327.24341 
C 120.7468 327.24341 120.981004 327.336343 121.15366 327.501742 
C 121.326316 327.667141 121.423327 327.891501 121.423327 328.12541 
C 121.423327 328.359319 121.326316 328.583679 121.15366 328.749078 
C 120.981004 328.914477 120.7468 329.00741 120.502627 329.00741 
C 120.258455 329.00741 120.02425 328.914477 119.851594 328.749078 
C 119.678938 328.583679 119.581927 328.359319 119.581927 328.12541 
C 119.581927 327.891501 119.678938 327.667141 119.851594 327.501742 
C 120.02425 327.336343 120.258455 327.24341 120.502627 327.24341 
z
" style="fill:#5126c2;"/>
   </g>
   <g id="patch_79">
    <path clip-path="url(#pa1255548f5)" d="M 120.502627 327.24341 
C 120.7468 327.24341 120.981004 327.336343 121.15366 327.501742 
C 121.326316 327.667141 121.423327 327.891501 121.423327 328.12541 
C 121.423327 328.359319 121.326316 328.583679 121.15366 328.749078 
C 120.981004 328.914477 120.7468 329.00741 120.502627 329.00741 
C 120.258455 329.00741 120.02425 328.914477 119.851594 328.749078 
C 119.678938 328.583679 119.581927 328.359319 119.581927 328.12541 
C 119.581927 327.891501 119.678938 327.667141 119.851594 327.501742 
C 120.02425 327.336343 120.258455 327.24341 120.502627 327.24341 
z
" style="fill:#5126c2;"/>
   </g>
   <g id="patch_80">
    <path clip-path="url(#pa1255548f5)" d="M 37.027898 277.173654 
C 37.27207 277.173654 37.506275 277.266588 37.678931 277.431986 
C 37.851587 277.597385 37.948598 277.821745 37.948598 278.055654 
C 37.948598 278.289564 37.851587 278.513924 37.678931 278.679323 
C 37.506275 278.844721 37.27207 278.937654 37.027898 278.937654 
C 36.783725 278.937654 36.54952 278.844721 36.376864 278.679323 
C 36.204208 278.513924 36.107198 278.289564 36.107198 278.055654 
C 36.107198 277.821745 36.204208 277.597385 36.376864 277.431986 
C 36.54952 277.266588 36.783725 277.173654 37.027898 277.173654 
z
" style="fill:#5126c2;"/>
   </g>
   <g id="patch_81">
    <path clip-path="url(#pa1255548f5)" d="M 36.620707 280.733914 
C 36.86488 280.733914 37.099084 280.826848 37.27174 280.992246 
C 37.444396 281.157645 37.541407 281.382005 37.541407 281.615914 
C 37.541407 281.849824 37.444396 282.074184 37.27174 282.239583 
C 37.099084 282.404981 36.86488 282.497914 36.620707 282.497914 
C 36.376535 282.497914 36.14233 282.404981 35.969674 282.239583 
C 35.797018 282.074184 35.700007 281.849824 35.700007 281.615914 
C 35.700007 281.382005 35.797018 281.157645 35.969674 280.992246 
C 36.14233 280.826848 36.376535 280.733914 36.620707 280.733914 
z
" style="fill:#5126c2;"/>
   </g>
   <g id="patch_82">
    <path clip-path="url(#pa1255548f5)" d="M 49.797503 326.251181 
C 50.041676 326.251181 50.275881 326.344114 50.448537 326.509513 
C 50.621193 326.674911 50.718203 326.899272 50.718203 327.133181 
C 50.718203 327.36709 50.621193 327.59145 50.448537 327.756849 
C 50.275881 327.922248 50.041676 328.015181 49.797503 328.015181 
C 49.553331 328.015181 49.319126 327.922248 49.14647 327.756849 
C 48.973814 327.59145 48.876803 327.36709 48.876803 327.133181 
C 48.876803 326.899272 48.973814 326.674911 49.14647 326.509513 
C 49.319126 326.344114 49.553331 326.251181 49.797503 326.251181 
z
" style="fill:#5126c2;"/>
   </g>
   <g id="patch_83">
    <path clip-path="url(#pa1255548f5)" d="M 119.602046 327.170523 
C 119.846219 327.170523 120.080423 327.263456 120.253079 327.428855 
C 120.425735 327.594254 120.522746 327.818614 120.522746 328.052523 
C 120.522746 328.286433 120.425735 328.510793 120.253079 328.676192 
C 120.080423 328.84159 119.846219 328.934523 119.602046 328.934523 
C 119.357874 328.934523 119.123669 328.84159 118.951013 328.676192 
C 118.778357 328.510793 118.681346 328.286433 118.681346 328.052523 
C 118.681346 327.818614 118.778357 327.594254 118.951013 327.428855 
C 119.123669 327.263456 119.357874 327.170523 119.602046 327.170523 
z
" style="fill:#22a471;"/>
   </g>
   <g id="patch_84">
    <path clip-path="url(#pa1255548f5)" d="M 119.602046 327.170523 
C 119.846219 327.170523 120.080423 327.263456 120.253079 327.428855 
C 120.425735 327.594254 120.522746 327.818614 120.522746 328.052523 
C 120.522746 328.286433 120.425735 328.510793 120.253079 328.676192 
C 120.080423 328.84159 119.846219 328.934523 119.602046 328.934523 
C 119.357874 328.934523 119.123669 328.84159 118.951013 328.676192 
C 118.778357 328.510793 118.681346 328.286433 118.681346 328.052523 
C 118.681346 327.818614 118.778357 327.594254 118.951013 327.428855 
C 119.123669 327.263456 119.357874 327.170523 119.602046 327.170523 
z
" style="fill:#22a471;"/>
   </g>
   <g id="patch_85">
    <path clip-path="url(#pa1255548f5)" d="M 35.738856 289.459991 
C 35.983028 289.459991 36.217233 289.552924 36.389889 289.718322 
C 36.562545 289.883721 36.659556 290.108081 36.659556 290.341991 
C 36.659556 290.5759 36.562545 290.80026 36.389889 290.965659 
C 36.217233 291.131058 35.983028 291.223991 35.738856 291.223991 
C 35.494683 291.223991 35.260478 291.131058 35.087822 290.965659 
C 34.915166 290.80026 34.818156 290.5759 34.818156 290.341991 
C 34.818156 290.108081 34.915166 289.883721 35.087822 289.718322 
C 35.260478 289.552924 35.494683 289.459991 35.738856 289.459991 
z
" style="fill:#22a471;"/>
   </g>
   <g id="patch_86">
    <path clip-path="url(#pa1255548f5)" d="M 36.003486 280.094696 
C 36.247658 280.094696 36.481863 280.187629 36.654519 280.353028 
C 36.827175 280.518426 36.924186 280.742787 36.924186 280.976696 
C 36.924186 281.210605 36.827175 281.434965 36.654519 281.600364 
C 36.481863 281.765763 36.247658 281.858696 36.003486 281.858696 
C 35.759313 281.858696 35.525109 281.765763 35.352453 281.600364 
C 35.179797 281.434965 35.082786 281.210605 35.082786 280.976696 
C 35.082786 280.742787 35.179797 280.518426 35.352453 280.353028 
C 35.525109 280.187629 35.759313 280.094696 36.003486 280.094696 
z
" style="fill:#22a471;"/>
   </g>
   <g id="patch_87">
    <path clip-path="url(#pa1255548f5)" d="M 59.227172 288.466263 
C 59.471345 288.466263 59.70555 288.559196 59.878206 288.724595 
C 60.050862 288.889994 60.147872 289.114354 60.147872 289.348263 
C 60.147872 289.582172 60.050862 289.806533 59.878206 289.971932 
C 59.70555 290.13733 59.471345 290.230263 59.227172 290.230263 
C 58.983 290.230263 58.748795 290.13733 58.576139 289.971932 
C 58.403483 289.806533 58.306472 289.582172 58.306472 289.348263 
C 58.306472 289.114354 58.403483 288.889994 58.576139 288.724595 
C 58.748795 288.559196 58.983 288.466263 59.227172 288.466263 
z
" style="fill:#22a471;"/>
   </g>
   <g id="patch_88">
    <path clip-path="url(#pa1255548f5)" d="M 119.602046 327.170523 
C 119.846219 327.170523 120.080423 327.263456 120.253079 327.428855 
C 120.425735 327.594254 120.522746 327.818614 120.522746 328.052523 
C 120.522746 328.286433 120.425735 328.510793 120.253079 328.676192 
C 120.080423 328.84159 119.846219 328.934523 119.602046 328.934523 
C 119.357874 328.934523 119.123669 328.84159 118.951013 328.676192 
C 118.778357 328.510793 118.681346 328.286433 118.681346 328.052523 
C 118.681346 327.818614 118.778357 327.594254 118.951013 327.428855 
C 119.123669 327.263456 119.357874 327.170523 119.602046 327.170523 
z
" style="fill:#22a471;"/>
   </g>
   <g id="patch_89">
    <path clip-path="url(#pa1255548f5)" d="M 56.567198 277.500808 
C 56.811371 277.500808 57.045575 277.593741 57.218231 277.75914 
C 57.390887 277.924539 57.487898 278.148899 57.487898 278.382808 
C 57.487898 278.616717 57.390887 278.841077 57.218231 279.006476 
C 57.045575 279.171875 56.811371 279.264808 56.567198 279.264808 
C 56.323026 279.264808 56.088821 279.171875 55.916165 279.006476 
C 55.743509 278.841077 55.646498 278.616717 55.646498 278.382808 
C 55.646498 278.148899 55.743509 277.924539 55.916165 277.75914 
C 56.088821 277.593741 56.323026 277.500808 56.567198 277.500808 
z
" style="fill:#22a471;"/>
   </g>
   <g id="patch_90">
    <path clip-path="url(#pa1255548f5)" d="M 119.832826 327.284353 
C 120.076998 327.284353 120.311203 327.377286 120.483859 327.542684 
C 120.656515 327.708083 120.753526 327.932443 120.753526 328.166353 
C 120.753526 328.400262 120.656515 328.624622 120.483859 328.790021 
C 120.311203 328.955419 120.076998 329.048353 119.832826 329.048353 
C 119.588653 329.048353 119.354448 328.955419 119.181792 328.790021 
C 119.009136 328.624622 118.912126 328.400262 118.912126 328.166353 
C 118.912126 327.932443 119.009136 327.708083 119.181792 327.542684 
C 119.354448 327.377286 119.588653 327.284353 119.832826 327.284353 
z
" style="fill:#22a471;"/>
   </g>
   <g id="patch_91">
    <path clip-path="url(#pa1255548f5)" d="M 119.832826 327.284353 
C 120.076998 327.284353 120.311203 327.377286 120.483859 327.542684 
C 120.656515 327.708083 120.753526 327.932443 120.753526 328.166353 
C 120.753526 328.400262 120.656515 328.624622 120.483859 328.790021 
C 120.311203 328.955419 120.076998 329.048353 119.832826 329.048353 
C 119.588653 329.048353 119.354448 328.955419 119.181792 328.790021 
C 119.009136 328.624622 118.912126 328.400262 118.912126 328.166353 
C 118.912126 327.932443 119.009136 327.708083 119.181792 327.542684 
C 119.354448 327.377286 119.588653 327.284353 119.832826 327.284353 
z
" style="fill:#22a471;"/>
   </g>
   <g id="patch_92">
    <path clip-path="url(#pa1255548f5)" d="M 50.90668 290.741585 
C 51.150852 290.741585 51.385057 290.834518 51.557713 290.999917 
C 51.730369 291.165316 51.82738 291.389676 51.82738 291.623585 
C 51.82738 291.857494 51.730369 292.081855 51.557713 292.247253 
C 51.385057 292.412652 51.150852 292.505585 50.90668 292.505585 
C 50.662507 292.505585 50.428302 292.412652 50.255646 292.247253 
C 50.08299 292.081855 49.98598 291.857494 49.98598 291.623585 
C 49.98598 291.389676 50.08299 291.165316 50.255646 290.999917 
C 50.428302 290.834518 50.662507 290.741585 50.90668 290.741585 
z
" style="fill:#22a471;"/>
   </g>
   <g id="patch_93">
    <path clip-path="url(#pa1255548f5)" d="M 58.277562 277.53004 
C 58.521734 277.53004 58.755939 277.622973 58.928595 277.788372 
C 59.101251 277.953771 59.198262 278.178131 59.198262 278.41204 
C 59.198262 278.645949 59.101251 278.87031 58.928595 279.035709 
C 58.755939 279.201107 58.521734 279.29404 58.277562 279.29404 
C 58.033389 279.29404 57.799184 279.201107 57.626528 279.035709 
C 57.453872 278.87031 57.356862 278.645949 57.356862 278.41204 
C 57.356862 278.178131 57.453872 277.953771 57.626528 277.788372 
C 57.799184 277.622973 58.033389 277.53004 58.277562 277.53004 
z
" style="fill:#22a471;"/>
   </g>
   <g id="patch_94">
    <path clip-path="url(#pa1255548f5)" d="M 72.031733 277.224544 
C 72.275905 277.224544 72.51011 277.317478 72.682766 277.482876 
C 72.855422 277.648275 72.952433 277.872635 72.952433 278.106544 
C 72.952433 278.340454 72.855422 278.564814 72.682766 278.730213 
C 72.51011 278.895611 72.275905 278.988544 72.031733 278.988544 
C 71.78756 278.988544 71.553355 278.895611 71.380699 278.730213 
C 71.208043 278.564814 71.111033 278.340454 71.111033 278.106544 
C 71.111033 277.872635 71.208043 277.648275 71.380699 277.482876 
C 71.553355 277.317478 71.78756 277.224544 72.031733 277.224544 
z
" style="fill:#22a471;"/>
   </g>
   <g id="patch_95">
    <path clip-path="url(#pa1255548f5)" d="M 119.832826 327.284353 
C 120.076998 327.284353 120.311203 327.377286 120.483859 327.542684 
C 120.656515 327.708083 120.753526 327.932443 120.753526 328.166353 
C 120.753526 328.400262 120.656515 328.624622 120.483859 328.790021 
C 120.311203 328.955419 120.076998 329.048353 119.832826 329.048353 
C 119.588653 329.048353 119.354448 328.955419 119.181792 328.790021 
C 119.009136 328.624622 118.912126 328.400262 118.912126 328.166353 
C 118.912126 327.932443 119.009136 327.708083 119.181792 327.542684 
C 119.354448 327.377286 119.588653 327.284353 119.832826 327.284353 
z
" style="fill:#22a471;"/>
   </g>
   <g id="patch_96">
    <path clip-path="url(#pa1255548f5)" d="M 64.733452 307.247716 
C 64.977624 307.247716 65.211829 307.340649 65.384485 307.506048 
C 65.557141 307.671447 65.654152 307.895807 65.654152 308.129716 
C 65.654152 308.363625 65.557141 308.587985 65.384485 308.753384 
C 65.211829 308.918783 64.977624 309.011716 64.733452 309.011716 
C 64.489279 309.011716 64.255074 308.918783 64.082418 308.753384 
C 63.909762 308.587985 63.812752 308.363625 63.812752 308.129716 
C 63.812752 307.895807 63.909762 307.671447 64.082418 307.506048 
C 64.255074 307.340649 64.489279 307.247716 64.733452 307.247716 
z
" style="fill:#22a471;"/>
   </g>
   <g id="patch_97">
    <path clip-path="url(#pa1255548f5)" d="M 58.640187 277.101656 
C 58.884359 277.101656 59.118564 277.194589 59.29122 277.359988 
C 59.463876 277.525387 59.560887 277.749747 59.560887 277.983656 
C 59.560887 278.217566 59.463876 278.441926 59.29122 278.607325 
C 59.118564 278.772723 58.884359 278.865656 58.640187 278.865656 
C 58.396014 278.865656 58.16181 278.772723 57.989154 278.607325 
C 57.816498 278.441926 57.719487 278.217566 57.719487 277.983656 
C 57.719487 277.749747 57.816498 277.525387 57.989154 277.359988 
C 58.16181 277.194589 58.396014 277.101656 58.640187 277.101656 
z
" style="fill:#22a471;"/>
   </g>
   <g id="patch_98">
    <path clip-path="url(#pa1255548f5)" d="M 119.832826 327.284353 
C 120.076998 327.284353 120.311203 327.377286 120.483859 327.542684 
C 120.656515 327.708083 120.753526 327.932443 120.753526 328.166353 
C 120.753526 328.400262 120.656515 328.624622 120.483859 328.790021 
C 120.311203 328.955419 120.076998 329.048353 119.832826 329.048353 
C 119.588653 329.048353 119.354448 328.955419 119.181792 328.790021 
C 119.009136 328.624622 118.912126 328.400262 118.912126 328.166353 
C 118.912126 327.932443 119.009136 327.708083 119.181792 327.542684 
C 119.354448 327.377286 119.588653 327.284353 119.832826 327.284353 
z
" style="fill:#22a471;"/>
   </g>
   <g id="patch_99">
    <path clip-path="url(#pa1255548f5)" d="M 35.909064 327.176415 
C 36.153236 327.176415 36.387441 327.269348 36.560097 327.434747 
C 36.732753 327.600145 36.829764 327.824506 36.829764 328.058415 
C 36.829764 328.292324 36.732753 328.516684 36.560097 328.682083 
C 36.387441 328.847482 36.153236 328.940415 35.909064 328.940415 
C 35.664891 328.940415 35.430687 328.847482 35.258031 328.682083 
C 35.085375 328.516684 34.988364 328.292324 34.988364 328.058415 
C 34.988364 327.824506 35.085375 327.600145 35.258031 327.434747 
C 35.430687 327.269348 35.664891 327.176415 35.909064 327.176415 
z
" style="fill:#22a471;"/>
   </g>
   <g id="patch_100">
    <path clip-path="url(#pa1255548f5)" d="M 70.886441 278.425377 
C 71.130613 278.425377 71.364818 278.51831 71.537474 278.683709 
C 71.71013 278.849108 71.807141 279.073468 71.807141 279.307377 
C 71.807141 279.541287 71.71013 279.765647 71.537474 279.931046 
C 71.364818 280.096444 71.130613 280.189377 70.886441 280.189377 
C 70.642268 280.189377 70.408064 280.096444 70.235408 279.931046 
C 70.062752 279.765647 69.965741 279.541287 69.965741 279.307377 
C 69.965741 279.073468 70.062752 278.849108 70.235408 278.683709 
C 70.408064 278.51831 70.642268 278.425377 70.886441 278.425377 
z
" style="fill:#22a471;"/>
   </g>
   <g id="patch_101">
    <path clip-path="url(#pa1255548f5)" d="M 119.832826 327.284353 
C 120.076998 327.284353 120.311203 327.377286 120.483859 327.542684 
C 120.656515 327.708083 120.753526 327.932443 120.753526 328.166353 
C 120.753526 328.400262 120.656515 328.624622 120.483859 328.790021 
C 120.311203 328.955419 120.076998 329.048353 119.832826 329.048353 
C 119.588653 329.048353 119.354448 328.955419 119.181792 328.790021 
C 119.009136 328.624622 118.912126 328.400262 118.912126 328.166353 
C 118.912126 327.932443 119.009136 327.708083 119.181792 327.542684 
C 119.354448 327.377286 119.588653 327.284353 119.832826 327.284353 
z
" style="fill:#22a471;"/>
   </g>
   <g id="patch_102">
    <path clip-path="url(#pa1255548f5)" d="M 119.556521 327.129705 
C 119.800694 327.129705 120.034898 327.222638 120.207554 327.388037 
C 120.38021 327.553436 120.477221 327.777796 120.477221 328.011705 
C 120.477221 328.245614 120.38021 328.469975 120.207554 328.635373 
C 120.034898 328.800772 119.800694 328.893705 119.556521 328.893705 
C 119.312349 328.893705 119.078144 328.800772 118.905488 328.635373 
C 118.732832 328.469975 118.635821 328.245614 118.635821 328.011705 
C 118.635821 327.777796 118.732832 327.553436 118.905488 327.388037 
C 119.078144 327.222638 119.312349 327.129705 119.556521 327.129705 
z
" style="fill:#22a471;"/>
   </g>
   <g id="patch_103">
    <path clip-path="url(#pa1255548f5)" d="M 37.465733 323.937546 
C 37.709905 323.937546 37.94411 324.030479 38.116766 324.195878 
C 38.289422 324.361277 38.386433 324.585637 38.386433 324.819546 
C 38.386433 325.053455 38.289422 325.277816 38.116766 325.443214 
C 37.94411 325.608613 37.709905 325.701546 37.465733 325.701546 
C 37.22156 325.701546 36.987355 325.608613 36.814699 325.443214 
C 36.642043 325.277816 36.545033 325.053455 36.545033 324.819546 
C 36.545033 324.585637 36.642043 324.361277 36.814699 324.195878 
C 36.987355 324.030479 37.22156 323.937546 37.465733 323.937546 
z
" style="fill:#22a471;"/>
   </g>
   <g id="patch_104">
    <path clip-path="url(#pa1255548f5)" d="M 43.5105 280.7595 
C 43.815716 280.7595 44.108471 280.875666 44.324292 281.082415 
C 44.540112 281.289163 44.661375 281.569614 44.661375 281.862 
C 44.661375 282.154386 44.540112 282.434837 44.324292 282.641585 
C 44.108471 282.848334 43.815716 282.9645 43.5105 282.9645 
C 43.205284 282.9645 42.912529 282.848334 42.696708 282.641585 
C 42.480888 282.434837 42.359625 282.154386 42.359625 281.862 
C 42.359625 281.569614 42.480888 281.289163 42.696708 281.082415 
C 42.912529 280.875666 43.205284 280.7595 43.5105 280.7595 
z
" style="fill:#99ff99;stroke:#ffffff;stroke-linejoin:miter;"/>
   </g>
   <g id="patch_105">
    <path clip-path="url(#pa1255548f5)" d="M 153.9945 315.1575 
C 154.299716 315.1575 154.592471 315.273666 154.808292 315.480415 
C 155.024112 315.687163 155.145375 315.967614 155.145375 316.26 
C 155.145375 316.552386 155.024112 316.832837 154.808292 317.039585 
C 154.592471 317.246334 154.299716 317.3625 153.9945 317.3625 
C 153.689284 317.3625 153.396529 317.246334 153.180708 317.039585 
C 152.964888 316.832837 152.843625 316.552386 152.843625 316.26 
C 152.843625 315.967614 152.964888 315.687163 153.180708 315.480415 
C 153.396529 315.273666 153.689284 315.1575 153.9945 315.1575 
z
" style="fill:#ff3300;stroke:#ffffff;stroke-linejoin:miter;"/>
   </g>
   <g id="line2d_12">
    <path clip-path="url(#pa1255548f5)" d="M 32.00175 274.365 
L 165.50325 274.365 
" style="fill:none;stroke:#1f77b4;stroke-linecap:square;stroke-width:1.5;"/>
   </g>
   <g id="line2d_13">
    <path clip-path="url(#pa1255548f5)" d="M 165.50325 274.365 
L 165.50325 331.695 
" style="fill:none;stroke:#1f77b4;stroke-linecap:square;stroke-width:1.5;"/>
   </g>
   <g id="line2d_14">
    <path clip-path="url(#pa1255548f5)" d="M 165.50325 331.695 
L 32.00175 331.695 
" style="fill:none;stroke:#1f77b4;stroke-linecap:square;stroke-width:1.5;"/>
   </g>
   <g id="line2d_15">
    <path clip-path="url(#pa1255548f5)" d="M 32.00175 331.695 
L 32.00175 274.365 
" style="fill:none;stroke:#1f77b4;stroke-linecap:square;stroke-width:1.5;"/>
   </g>
   <g id="line2d_16">
    <path clip-path="url(#pa1255548f5)" d="M 140.64435 331.695 
L 56.4003 300.825 
" style="fill:none;stroke:#1f77b4;stroke-linecap:square;stroke-width:1.5;"/>
   </g>
   <g id="line2d_17">
    <path clip-path="url(#pa1255548f5)" d="M 82.1799 274.365 
L 63.30555 290.682 
" style="fill:none;stroke:#1f77b4;stroke-linecap:square;stroke-width:1.5;"/>
   </g>
   <g id="line2d_18">
    <path clip-path="url(#pa1255548f5)" d="M 89.5455 312.291 
L 78.95745 292.446 
" style="fill:none;stroke:#1f77b4;stroke-linecap:square;stroke-width:1.5;"/>
   </g>
   <g id="line2d_19">
    <path clip-path="url(#pa1255548f5)" d="M 119.9286 274.365 
L 93.68865 294.651 
" style="fill:none;stroke:#1f77b4;stroke-linecap:square;stroke-width:1.5;"/>
   </g>
   <g id="line2d_20">
    <path clip-path="url(#pa1255548f5)" d="M 130.51665 327.285 
L 113.4837 299.943 
" style="fill:none;stroke:#1f77b4;stroke-linecap:square;stroke-width:1.5;"/>
   </g>
   <g id="line2d_21">
    <path clip-path="url(#pa1255548f5)" d="M 152.61345 274.365 
L 128.2149 299.943 
" style="fill:none;stroke:#1f77b4;stroke-linecap:square;stroke-width:1.5;"/>
   </g>
   <g id="line2d_22">
    <path clip-path="url(#pa1255548f5)" d="M 154.45485 331.695 
L 138.80295 310.968 
" style="fill:none;stroke:#1f77b4;stroke-linecap:square;stroke-width:1.5;"/>
   </g>
   <g id="text_2">
    <!-- fitness &lt; 0.8 -->
    <g transform="translate(83.509688 266.16)scale(0.12 -0.12)">
     <defs>
      <path d="M 73.1875 49.21875 
L 22.796875 31.296875 
L 73.1875 13.484375 
L 73.1875 4.59375 
L 10.59375 27.296875 
L 10.59375 35.40625 
L 73.1875 58.109375 
z
" id="DejaVuSans-60"/>
     </defs>
     <use xlink:href="#DejaVuSans-102"/>
     <use x="35.205078" xlink:href="#DejaVuSans-105"/>
     <use x="62.988281" xlink:href="#DejaVuSans-116"/>
     <use x="102.197266" xlink:href="#DejaVuSans-110"/>
     <use x="165.576172" xlink:href="#DejaVuSans-101"/>
     <use x="227.099609" xlink:href="#DejaVuSans-115"/>
     <use x="279.199219" xlink:href="#DejaVuSans-115"/>
     <use x="331.298828" xlink:href="#DejaVuSans-32"/>
     <use x="363.085938" xlink:href="#DejaVuSans-60"/>
     <use x="446.875" xlink:href="#DejaVuSans-32"/>
     <use x="478.662109" xlink:href="#DejaVuSans-48"/>
     <use x="542.285156" xlink:href="#DejaVuSans-46"/>
     <use x="574.072266" xlink:href="#DejaVuSans-56"/>
    </g>
   </g>
  </g>
 </g>
 <defs>
  <clipPath id="pfbd0d70a85">
   <rect height="176.4" width="184.14" x="29.7" y="60.48"/>
  </clipPath>
  <clipPath id="pa1255548f5">
   <rect height="176.4" width="184.14" x="29.7" y="272.16"/>
  </clipPath>
 </defs>
</svg>
